<?xml version="1.0" encoding="utf-8"?>
<!-- Generator: Adobe Illustrator 19.0.0, SVG Export Plug-In . SVG Version: 6.00 Build 0)  -->
<svg version="1.0" id="Layer_1" xmlns="http://www.w3.org/2000/svg" xmlns:xlink="http://www.w3.org/1999/xlink" x="0px" y="0px"
	 width="20px" height="20px" viewBox="0 0 20 20" style="enable-background:new 0 0 20 20;" xml:space="preserve">
<path id="saude" style="display:none;fill:#00C882;" d="M10,2c-4.4,0-8,3.6-8,8c0,4.4,3.6,8,8,8s8-3.6,8-8C18,5.6,14.4,2,10,2z
	 M15,12h-3v3H8v-3H5v-4h3v-3h4v3h3V12z"/>
<path id="educacao" style="fill:#00C882;" d="M10,2c-4.4,0-8,3.6-8,8c0,4.4,3.6,8,8,8s8-3.6,8-8C18,5.6,14.4,2,10,2z M4,7.3l2.8-2.8
	l6.4,6.4l-2.8,2.8L4,7.3z M11.1,14.4l2.8-2.8l0.7,3.5L11.1,14.4z"/>
</svg>
