<?xml version="1.0" encoding="utf-8"?>
<!-- Generator: Adobe Illustrator 16.0.0, SVG Export Plug-In . SVG Version: 6.00 Build 0)  -->
<!DOCTYPE svg PUBLIC "-//W3C//DTD SVG 1.1//EN" "http://www.w3.org/Graphics/SVG/1.1/DTD/svg11.dtd">
<svg version="1.1" xmlns="http://www.w3.org/2000/svg" xmlns:xlink="http://www.w3.org/1999/xlink" x="0px" y="0px" width="316px"
	 height="226px" viewBox="0.5 -12 316 226" enable-background="new 0.5 -12 316 226" xml:space="preserve">
<g id="Layer_2">
</g>
<g id="Layer_1">
	<g>
		<path fill="#F05B88" d="M71.5,21v-4h2h2v3v3h1h1v1v1h1h1v-1v-1h1h1v-3v-3h2h2v4v4h-1h-1v1v1h-1h-1v1v1h-1h-1v1v1h-1h-1v-1v-1h-1
			h-1v-1v-1h-1h-1v-1v-1h-1h-1V21z"/>
		<path fill="#F05B88" d="M89.5,18v-1h5h5v1v1h1h1v5v5h-1h-1v1v1h-5h-5v-1v-1h-1h-1v-5v-5h1h1V18z M97.5,24v-5h-3h-3v5v5h3h3V24z"/>
		<path fill="#F05B88" d="M107.5,18v-1h4h4v1v1h1h1v1v1h-2h-2v-1v-1h-2h-2v1v1h-1h-1v3v3h1h1v1v1h2h2v-1v-1h2h2v1v1h-1h-1v1v1h-4h-4
			v-1v-1h-1h-1v-1v-1h-1h-1v-3v-3h1h1v-1v-1h1h1V18z"/>
		<path fill="#F05B88" d="M123.5,18v-1h3h3v1v1h1h1v1v1h1h1v1v1h-5h-5v1v1h4h4v1v1h-4h-4v1v1h5h5v1v1h-7h-7v-5v-5h1h1v-1v-1h1h1V18z
			 M127.5,20v-1h-1h-1v1v1h1h1V20z"/>
		<path fill="#F05B88" d="M151.5,24v-7h6h6v1v1h1h1v3v3h-1h-1v1v1h-4h-4v2v2h-2h-2V24z M161.5,22v-3h-3h-3v3v3h3h3V22z"/>
		<path fill="#F05B88" d="M167.5,24v-7h7h7v1v1h-5h-5v2v2h4h4v1v1h-4h-4v2v2h5h5v1v1h-7h-7V24z"/>
		<path fill="#F05B88" d="M183.5,24v-7h6h6v1v1h1h1v3v3h-2h-2v1v1h1h1v1v1h1h1v1v1h-3h-3v-1v-1h-1h-1v-1v-1h-1h-1v2v2h-2h-2V24z
			 M193.5,21v-2h-3h-3v3v3h2h2v-1v-1h1h1V21z"/>
		<path fill="#F05B88" d="M199.5,24v-7h5h5v1v1h1h1v1v1h1h1v3v3h-1h-1v1v1h-1h-1v1v1h-5h-5V24z M207.5,20v-1h-2h-2v5v5h2h2v-1v-1h1
			h1v-3v-3h-1h-1V20z"/>
		<path fill="#F05B88" d="M215.5,24v-7h7h7v1v1h-5h-5v2v2h4h4v1v1h-4h-4v2v2h5h5v1v1h-7h-7V24z"/>
		<path fill="#F05B88" d="M231.5,23v-6h2h2v6v6h3h3v-6v-6h2h2v6v6h-1h-1v1v1h-5h-5v-1v-1h-1h-1V23z"/>
	</g>
	<g>
		<path fill="#FFFFFF" d="M53.5,146.5V146H56h2.5v0.5v0.5H59h0.5v2.5v2.5H59h-0.5v0.5v0.5H56h-2.5v-0.5V152H53h-0.5v-2.5V147H53h0.5
			V146.5z M57.5,149.5V147H56h-1.5v2.5v2.5H56h1.5V149.5z"/>
		<path fill="#FFFFFF" d="M62.5,146.5V146h2h2v0.5v0.5H67h0.5v0.5v0.5h-1h-1v-0.5V147h-1h-1v0.5v0.5H63h-0.5v1.5v1.5H63h0.5v0.5v0.5
			h1h1v-0.5V151h1h1v0.5v0.5H67h-0.5v0.5v0.5h-2h-2v-0.5V152H62h-0.5v-0.5V151H61h-0.5v-1.5V148H61h0.5v-0.5V147H62h0.5V146.5z"/>
		<path fill="#FFFFFF" d="M68.5,149v-3h1h1v3v3H72h1.5v-3v-3h1h1v3v3H75h-0.5v0.5v0.5H72h-2.5v-0.5V152H69h-0.5V149z"/>
		<path fill="#FFFFFF" d="M76.5,149.5V146h3h3v0.5v0.5H83h0.5v1.5v1.5H83h-0.5v0.5v0.5h-2h-2v1v1h-1h-1V149.5z M81.5,148.5V147H80
			h-1.5v1.5v1.5H80h1.5V148.5z"/>
		<path fill="#FFFFFF" d="M84.5,149.5V146H88h3.5v0.5v0.5H89h-2.5v1v1h2h2v0.5v0.5h-2h-2v1v1H89h2.5v0.5v0.5H88h-3.5V149.5z"/>
		<path fill="#FFFFFF" d="M102.5,146.5V146h1.5h1.5v0.5v0.5h0.5h0.5v0.5v0.5h0.5h0.5v2.5v2.5h-1h-1v-1v-1H104h-1.5v1v1h-1h-1v-2.5
			V148h0.5h0.5v-0.5V147h0.5h0.5V146.5z M104.5,147.5V147H104h-0.5v0.5v0.5H103h-0.5v1v1h1.5h1.5v-1v-1H105h-0.5V147.5z"/>
		<path fill="#FFFFFF" d="M109.5,146.5V146h2h2v0.5v0.5h0.5h0.5v0.5v0.5h-1h-1v-0.5V147h-1h-1v1v1h2h2v0.5v0.5h0.5h0.5v1v1H115h-0.5
			v0.5v0.5H112h-2.5v-0.5V152H109h-0.5v-0.5V151h1h1v0.5v0.5h1.5h1.5v-1v-1h-2h-2v-0.5V149H109h-0.5v-1v-1h0.5h0.5V146.5z"/>
		<path fill="#FFFFFF" d="M124.5,149.5V146h3h3v0.5v0.5h0.5h0.5v1.5v1.5h-1h-1v0.5v0.5h0.5h0.5v0.5v0.5h0.5h0.5v0.5v0.5H130h-1.5
			v-0.5V152H128h-0.5v-0.5V151H127h-0.5v1v1h-1h-1V149.5z M129.5,148v-1H128h-1.5v1.5v1.5h1h1v-0.5V149h0.5h0.5V148z"/>
		<path fill="#FFFFFF" d="M132.5,149v-3h1h1v3v3h1.5h1.5v-3v-3h1h1v3v3H139h-0.5v0.5v0.5H136h-2.5v-0.5V152H133h-0.5V149z"/>
		<path fill="#FFFFFF" d="M142.5,146.5V146h1.5h1.5v0.5v0.5h0.5h0.5v0.5v0.5h0.5h0.5v2.5v2.5h-1h-1v-1v-1H144h-1.5v1v1h-1h-1v-2.5
			V148h0.5h0.5v-0.5V147h0.5h0.5V146.5z M144.5,147.5V147H144h-0.5v0.5v0.5H143h-0.5v1v1h1.5h1.5v-1v-1H145h-0.5V147.5z"/>
		<path fill="#FFFFFF" d="M149.5,146.5V146h2h2v0.5v0.5h0.5h0.5v0.5v0.5h-1h-1v-0.5V147h-1h-1v1v1h2h2v0.5v0.5h0.5h0.5v1v1H155h-0.5
			v0.5v0.5H152h-2.5v-0.5V152H149h-0.5v-0.5V151h1h1v0.5v0.5h1.5h1.5v-1v-1h-2h-2v-0.5V149H149h-0.5v-1v-1h0.5h0.5V146.5z"/>
		<path fill="#FFFFFF" d="M164.5,149.5V146h2.5h2.5v0.5v0.5h0.5h0.5v0.5v0.5h0.5h0.5v1.5v1.5H171h-0.5v0.5v0.5H170h-0.5v0.5v0.5H167
			h-2.5V149.5z M168.5,147.5V147h-1h-1v2.5v2.5h1h1v-0.5V151h0.5h0.5v-1.5V148H169h-0.5V147.5z"/>
		<path fill="#FFFFFF" d="M174.5,146.5V146h1.5h1.5v0.5v0.5h0.5h0.5v0.5v0.5h0.5h0.5v2.5v2.5h-1h-1v-1v-1H176h-1.5v1v1h-1h-1v-2.5
			V148h0.5h0.5v-0.5V147h0.5h0.5V146.5z M176.5,147.5V147H176h-0.5v0.5v0.5H175h-0.5v1v1h1.5h1.5v-1v-1H177h-0.5V147.5z"/>
		<path fill="#FFFFFF" d="M189.5,146.5V146h2h2v0.5v0.5h0.5h0.5v0.5v0.5h-1h-1v-0.5V147h-1h-1v1v1h2h2v0.5v0.5h0.5h0.5v1v1H195h-0.5
			v0.5v0.5H192h-2.5v-0.5V152H189h-0.5v-0.5V151h1h1v0.5v0.5h1.5h1.5v-1v-1h-2h-2v-0.5V149H189h-0.5v-1v-1h0.5h0.5V146.5z"/>
		<path fill="#FFFFFF" d="M196.5,149v-3h1h1v3v3h1.5h1.5v-3v-3h1h1v3v3H203h-0.5v0.5v0.5H200h-2.5v-0.5V152H197h-0.5V149z"/>
		<path fill="#FFFFFF" d="M206.5,146.5V146h1.5h1.5v0.5v0.5h0.5h0.5v0.5v0.5h0.5h0.5v2.5v2.5h-1h-1v-1v-1H208h-1.5v1v1h-1h-1v-2.5
			V148h0.5h0.5v-0.5V147h0.5h0.5V146.5z M208.5,147.5V147H208h-0.5v0.5v0.5H207h-0.5v1v1h1.5h1.5v-1v-1H209h-0.5V147.5z"/>
		<path fill="#FFFFFF" d="M222.5,146.5V146h2h2v0.5v0.5h0.5h0.5v0.5v0.5h-1h-1v-0.5V147h-1h-1v0.5v0.5H223h-0.5v1.5v1.5h0.5h0.5v0.5
			v0.5h1h1v-0.5V151h1h1v0.5v0.5H227h-0.5v0.5v0.5h-2h-2v-0.5V152H222h-0.5v-0.5V151H221h-0.5v-1.5V148h0.5h0.5v-0.5V147h0.5h0.5
			V146.5z"/>
		<path fill="#FFFFFF" d="M229.5,146.5V146h3h3v0.5v0.5h-1h-1v2.5v2.5h1h1v0.5v0.5h-3h-3v-0.5V152h1h1v-2.5V147h-1h-1V146.5z"/>
		<path fill="#FFFFFF" d="M236.5,149.5V146h2.5h2.5v0.5v0.5h0.5h0.5v0.5v0.5h0.5h0.5v1.5v1.5H243h-0.5v0.5v0.5H242h-0.5v0.5v0.5H239
			h-2.5V149.5z M240.5,147.5V147h-1h-1v2.5v2.5h1h1v-0.5V151h0.5h0.5v-1.5V148H241h-0.5V147.5z"/>
		<path fill="#FFFFFF" d="M246.5,146.5V146h1.5h1.5v0.5v0.5h0.5h0.5v0.5v0.5h0.5h0.5v2.5v2.5h-1h-1v-1v-1H248h-1.5v1v1h-1h-1v-2.5
			V148h0.5h0.5v-0.5V147h0.5h0.5V146.5z M248.5,147.5V147H248h-0.5v0.5v0.5H247h-0.5v1v1h1.5h1.5v-1v-1H249h-0.5V147.5z"/>
		<path fill="#FFFFFF" d="M252.5,149.5V146h2.5h2.5v0.5v0.5h0.5h0.5v0.5v0.5h0.5h0.5v1.5v1.5H259h-0.5v0.5v0.5H258h-0.5v0.5v0.5H255
			h-2.5V149.5z M256.5,147.5V147h-1h-1v2.5v2.5h1h1v-0.5V151h0.5h0.5v-1.5V148H257h-0.5V147.5z"/>
		<path fill="#FFFFFF" d="M260.5,149.5V146h3.5h3.5v0.5v0.5H265h-2.5v1v1h2h2v0.5v0.5h-2h-2v1v1h2.5h2.5v0.5v0.5H264h-3.5V149.5z"/>
		<path fill="#FFFFFF" d="M44.5,165.5V162h1h1v0.5v0.5H47h0.5v0.5v0.5H48h0.5v0.5v0.5H49h0.5v-1.5V162h1h1v3.5v3.5h-1h-1v-0.5V168
			H49h-0.5v-0.5V167H48h-0.5v-0.5V166H47h-0.5v1.5v1.5h-1h-1V165.5z"/>
		<path fill="#FFFFFF" d="M53.5,162.5V162H56h2.5v0.5v0.5H59h0.5v2.5v2.5H59h-0.5v0.5v0.5H56h-2.5v-0.5V168H53h-0.5v-2.5V163H53h0.5
			V162.5z M57.5,165.5V163H56h-1.5v2.5v2.5H56h1.5V165.5z"/>
		<path fill="#FFFFFF" d="M68.5,165.5V162H71h2.5v0.5v0.5H74h0.5v0.5v0.5H75h0.5v1.5v1.5H75h-0.5v0.5v0.5H74h-0.5v0.5v0.5H71h-2.5
			V165.5z M72.5,163.5V163h-1h-1v2.5v2.5h1h1v-0.5V167H73h0.5v-1.5V164H73h-0.5V163.5z"/>
		<path fill="#FFFFFF" d="M77.5,162.5V162h3h3v0.5v0.5h-1h-1v2.5v2.5h1h1v0.5v0.5h-3h-3v-0.5V168h1h1v-2.5V163h-1h-1V162.5z"/>
		<path fill="#FFFFFF" d="M86.5,162.5V162H88h1.5v0.5v0.5H90h0.5v0.5v0.5H91h0.5v2.5v2.5h-1h-1v-1v-1H88h-1.5v1v1h-1h-1v-2.5V164H85
			h0.5v-0.5V163H86h0.5V162.5z M88.5,163.5V163H88h-0.5v0.5v0.5H87h-0.5v1v1H88h1.5v-1v-1H89h-0.5V163.5z"/>
		<path fill="#FFFFFF" d="M103.5,162.5V162h1h1v3v3h1h1v0.5v0.5h-3h-3v-0.5V168h1h1v-2v-2H103h-0.5v-0.5V163h0.5h0.5V162.5z"/>
		<path fill="#FFFFFF" d="M109.5,162.5V162h3h3v0.5v0.5H115h-0.5v0.5v0.5H114h-0.5v0.5v0.5h0.5h0.5v0.5v0.5h0.5h0.5v1v1H115h-0.5
			v0.5v0.5H112h-2.5v-0.5V168H109h-0.5v-0.5V167h1h1v0.5v0.5h1.5h1.5v-1v-1H112h-1.5v-0.5V165h0.5h0.5v-0.5V164h0.5h0.5v-0.5V163
			H111h-1.5V162.5z"/>
		<path fill="#FFFFFF" d="M122.5,162.5V162h0.5h0.5v0.5v0.5H123h-0.5v0.5v0.5H122h-0.5v0.5v0.5H121h-0.5v0.5v0.5H120h-0.5v0.5v0.5
			H119h-0.5v0.5v0.5H118h-0.5v0.5v0.5H117h-0.5v-0.5V168h0.5h0.5v-0.5V167h0.5h0.5v-0.5V166h0.5h0.5v-0.5V165h0.5h0.5v-0.5V164h0.5
			h0.5v-0.5V163h0.5h0.5V162.5z"/>
		<path fill="#FFFFFF" d="M127.5,162.5V162h1h1v3v3h1h1v0.5v0.5h-3h-3v-0.5V168h1h1v-2v-2H127h-0.5v-0.5V163h0.5h0.5V162.5z"/>
		<path fill="#FFFFFF" d="M133.5,162.5V162h2.5h2.5v0.5v0.5h0.5h0.5v1v1H139h-0.5v0.5v0.5H138h-0.5v0.5v0.5h-1h-1v0.5v0.5h2h2v0.5
			v0.5H136h-3.5v-1v-1h0.5h0.5v-0.5V166h0.5h0.5v-0.5V165h1h1v-0.5V164h0.5h0.5v-0.5V163H136h-1.5v0.5v0.5h-1h-1v-0.5V163h0.5h0.5
			V162.5z"/>
		<path fill="#FFFFFF" d="M150.5,162.5V162h2h2v0.5v0.5h0.5h0.5v0.5v0.5h-1h-1v-0.5V163h-1h-1v0.5v0.5H151h-0.5v1.5v1.5h0.5h0.5v0.5
			v0.5h1h1v-0.5V167h1h1v0.5v0.5H155h-0.5v0.5v0.5h-2h-2v-0.5V168H150h-0.5v-0.5V167H149h-0.5v-1.5V164h0.5h0.5v-0.5V163h0.5h0.5
			V162.5z"/>
		<path fill="#FFFFFF" d="M157.5,162.5V162h2.5h2.5v0.5v0.5h0.5h0.5v2.5v2.5H163h-0.5v0.5v0.5H160h-2.5v-0.5V168H157h-0.5v-2.5V163
			h0.5h0.5V162.5z M161.5,165.5V163H160h-1.5v2.5v2.5h1.5h1.5V165.5z"/>
		<path fill="#FFFFFF" d="M164.5,165.5V162h1h1v0.5v0.5h0.5h0.5v0.5v0.5h0.5h0.5v0.5v0.5h0.5h0.5v-1.5V162h1h1v3.5v3.5h-1h-1v-0.5
			V168H169h-0.5v-0.5V167H168h-0.5v-0.5V166H167h-0.5v1.5v1.5h-1h-1V165.5z"/>
		<path fill="#FFFFFF" d="M173.5,162.5V162h3h3v0.5v0.5h-1h-1v3v3h-1h-1v-3v-3h-1h-1V162.5z"/>
		<path fill="#FFFFFF" d="M180.5,165.5V162h3h3v0.5v0.5h0.5h0.5v1.5v1.5h-1h-1v0.5v0.5h0.5h0.5v0.5v0.5h0.5h0.5v0.5v0.5H186h-1.5
			v-0.5V168H184h-0.5v-0.5V167H183h-0.5v1v1h-1h-1V165.5z M185.5,164v-1H184h-1.5v1.5v1.5h1h1v-0.5V165h0.5h0.5V164z"/>
		<path fill="#FFFFFF" d="M190.5,162.5V162h1.5h1.5v0.5v0.5h0.5h0.5v0.5v0.5h0.5h0.5v2.5v2.5h-1h-1v-1v-1H192h-1.5v1v1h-1h-1v-2.5
			V164h0.5h0.5v-0.5V163h0.5h0.5V162.5z M192.5,163.5V163H192h-0.5v0.5v0.5H191h-0.5v1v1h1.5h1.5v-1v-1H193h-0.5V163.5z"/>
		<path fill="#FFFFFF" d="M206.5,162.5V162h1.5h1.5v0.5v0.5h0.5h0.5v0.5v0.5h0.5h0.5v2.5v2.5h-1h-1v-1v-1H208h-1.5v1v1h-1h-1v-2.5
			V164h0.5h0.5v-0.5V163h0.5h0.5V162.5z M208.5,163.5V163H208h-0.5v0.5v0.5H207h-0.5v1v1h1.5h1.5v-1v-1H209h-0.5V163.5z"/>
		<path fill="#FFFFFF" d="M220.5,165.5V162h3h3v0.5v0.5h0.5h0.5v1.5v1.5H227h-0.5v0.5v0.5h-2h-2v1v1h-1h-1V165.5z M225.5,164.5V163
			H224h-1.5v1.5v1.5h1.5h1.5V164.5z"/>
		<path fill="#FFFFFF" d="M228.5,165.5V162h3.5h3.5v0.5v0.5H233h-2.5v1v1h2h2v0.5v0.5h-2h-2v1v1h2.5h2.5v0.5v0.5H232h-3.5V165.5z"/>
		<path fill="#FFFFFF" d="M238.5,162.5V162h2h2v0.5v0.5h0.5h0.5v0.5v0.5h-1h-1v-0.5V163h-1h-1v0.5v0.5H239h-0.5v1.5v1.5h0.5h0.5v0.5
			v0.5h1h1v-0.5V167h1h1v0.5v0.5H243h-0.5v0.5v0.5h-2h-2v-0.5V168H238h-0.5v-0.5V167H237h-0.5v-1.5V164h0.5h0.5v-0.5V163h0.5h0.5
			V162.5z"/>
		<path fill="#FFFFFF" d="M252.5,163.5V162h3h3v0.5v0.5h-2h-2v0.5v0.5h2h2v0.5v0.5h0.5h0.5v1.5v1.5H259h-0.5v0.5v0.5H256h-2.5v-0.5
			V168H253h-0.5v-0.5V167h1h1v0.5v0.5h1.5h1.5v-1.5V165H255h-2.5V163.5z"/>
		<path fill="#FFFFFF" d="M260.5,163.5V162h3h3v0.5v0.5h-2h-2v0.5v0.5h2h2v0.5v0.5h0.5h0.5v1.5v1.5H267h-0.5v0.5v0.5H264h-2.5v-0.5
			V168H261h-0.5v-0.5V167h1h1v0.5v0.5h1.5h1.5v-1.5V165H263h-2.5V163.5z"/>
		<path fill="#FFFFFF" d="M270.5,168v-1h1h1v1v1h-1h-1V168z"/>
	</g>
	<path fill="#FCD00C" d="M41.5,16.5c5.073,0,9.502,2.707,11.958,6.747L37.5,30.5l15.958,7.253C51.002,41.793,46.573,44.5,41.5,44.5
		c-7.73,0-14-6.268-14-14S33.77,16.5,41.5,16.5z"/>
	<polygon fill="#F05B88" points="9.5,16.5 28,16.5 29,16.5 30.5,16.5 30.5,33.5 27.5,33.5 27.5,27.5 9.5,27.5 	"/>
	<g>
		<path fill="#FFFFFF" d="M12.5,20v-1.5H16h2.5V19v0.5H17h-2.5V20v0.5H17h1.5V21v0.5h1l0,0V23v1.5l0,0h-1V25v0.5h-2h-3V25v-0.5l0,0
			h-1V24v-0.5H14h0.5V24v0.5h2h1V23v-1.5h-2h-3V20z"/>
		<path fill="#FFFFFF" d="M20.5,20v-1.5H24h2.5V19v0.5H25h-2.5V20v0.5H25h1.5V21v0.5h1l0,0V23v1.5l0,0h-1V25v0.5h-2h-3V25v-0.5l0,0
			h-1V24v-0.5H22h0.5V24v0.5h2h1V23v-1.5h-2h-3V20z"/>
	</g>
	<g>
		<path fill="#8ED7F7" d="M6.5,32.5V32h1l0,0v0.5V33H9h0.5v0.5V34H9H7.5v0.5V35H9h0.5v0.5V36h1l0,0v0.5V37l0,0h-1v0.5V38H9H7.5v0.5
			V39l0,0h-1v-0.5V38h-1h-2v-0.5V37h2h1v-0.5V36H6H4.5v-0.5V35l0,0h-1v-0.5V34h1l0,0v-0.5V33H6h0.5V32.5z M7,34.5V34H6.5H6v0.5V35
			h0.5H7V34.5z M9,36.5V36H8.5H8v0.5V37h0.5H9V36.5z"/>
	</g>
	<g>
		<path fill="#8ED7F7" d="M55.5,50.5V50h1l0,0v0.5V51H58h0.5v0.5V52H58h-1.5v0.5V53H58h0.5v0.5V54h1l0,0v0.5V55l0,0h-1v0.5V56H58
			h-1.5v0.5V57l0,0h-1v-0.5V56h-1h-2v-0.5V55h2h1v-0.5V54H55h-1.5v-0.5V53l0,0h-1v-0.5V52h1l0,0v-0.5V51H55h0.5V50.5z M56,52.5V52
			h-0.5H55v0.5V53h0.5H56V52.5z M58,54.5V54h-0.5H57v0.5V55h0.5H58V54.5z"/>
	</g>
	<g>
		<path fill="#8ED7F7" d="M30.5,51.5V51h1l0,0v0.5V52H33h0.5v0.5V53H33h-1.5v0.5V54H33h0.5v0.5V55h1l0,0v0.5V56l0,0h-1v0.5V57H33
			h-1.5v0.5V58l0,0h-1v-0.5V57h-1h-2v-0.5V56h2h1v-0.5V55H30h-1.5v-0.5V54l0,0h-1v-0.5V53h1l0,0v-0.5V52H30h0.5V51.5z M31,53.5V53
			h-0.5H30v0.5V54h0.5H31V53.5z M33,55.5V55h-0.5H32v0.5V56h0.5H33V55.5z"/>
	</g>
	<g>
		<path fill="#8ED7F7" d="M82,36.5V36h1l0,0v0.5V37h1.5H85v0.5V38h-0.5H83v0.5V39h1.5H85v0.5V40h1l0,0v0.5V41l0,0h-1v0.5V42h-0.5H83
			v0.5V43l0,0h-1v-0.5V42h-1h-2v-0.5V41h2h1v-0.5V40h-0.5H80v-0.5V39l0,0h-1v-0.5V38h1l0,0v-0.5V37h1.5H82V36.5z M82.5,38.5V38H82
			h-0.5v0.5V39H82h0.5V38.5z M84.5,40.5V40H84h-0.5v0.5V41H84h0.5V40.5z"/>
	</g>
	<g>
		<path fill="#8ED7F7" d="M64.5,32.5V32h1l0,0v0.5V33H67h0.5v0.5V34H67h-1.5v0.5V35H67h0.5v0.5V36h1l0,0v0.5V37l0,0h-1v0.5V38H67
			h-1.5v0.5V39l0,0h-1v-0.5V38h-1h-2v-0.5V37h2h1v-0.5V36H64h-1.5v-0.5V35l0,0h-1v-0.5V34h1l0,0v-0.5V33H64h0.5V32.5z M65,34.5V34
			h-0.5H64v0.5V35h0.5H65V34.5z M67,36.5V36h-0.5H66v0.5V37h0.5H67V36.5z"/>
	</g>
	<g>
		<path fill="#8ED7F7" d="M79.5-2.5V-3h1l0,0v0.5V-2H82h0.5v0.5V-1H82h-1.5v0.5V0H82h0.5v0.5V1h1l0,0v0.5V2l0,0h-1v0.5V3H82h-1.5
			v0.5V4l0,0h-1V3.5V3h-1h-2V2.5V2h2h1V1.5V1H79h-1.5V0.5V0l0,0h-1v-0.5V-1h1l0,0v-0.5V-2H79h0.5V-2.5z M80-0.5V-1h-0.5H79v0.5V0
			h0.5H80V-0.5z M82,1.5V1h-0.5H81v0.5V2h0.5H82V1.5z"/>
	</g>
	<g>
		<path fill="#8ED7F7" d="M55,7V6.5h1l0,0V7v0.5h1.5H58V8v0.5h-0.5H56V9v0.5h1.5H58V10v0.5h1l0,0V11v0.5l0,0h-1V12v0.5h-0.5H56V13
			v0.5l0,0h-1V13v-0.5h-1h-2V12v-0.5h2h1V11v-0.5h-0.5H53V10V9.5l0,0h-1V9V8.5h1l0,0V8V7.5h1.5H55V7z M55.5,9V8.5H55h-0.5V9v0.5H55
			h0.5V9z M57.5,11v-0.5H57h-0.5V11v0.5H57h0.5V11z"/>
	</g>
	<g>
		<path fill="#8ED7F7" d="M32.5,2V1.5h1l0,0V2v0.5H35h0.5V3v0.5H35h-1.5V4v0.5H35h0.5V5v0.5h1l0,0V6v0.5l0,0h-1V7v0.5H35h-1.5V8v0.5
			l0,0h-1V8V7.5h-1h-2V7V6.5h2h1V6V5.5H32h-1.5V5V4.5l0,0h-1V4V3.5h1l0,0V3V2.5H32h0.5V2z M33,4V3.5h-0.5H32V4v0.5h0.5H33V4z M35,6
			V5.5h-0.5H34V6v0.5h0.5H35V6z"/>
	</g>
	<g>
		<path fill="#8ED7F7" d="M7.5,5V4.5h1l0,0V5v0.5H10h0.5V6v0.5H10H8.5V7v0.5H10h0.5V8v0.5h1l0,0V9v0.5l0,0h-1V10v0.5H10H8.5V11v0.5
			l0,0h-1V11v-0.5h-1h-2V10V9.5h2h1V9V8.5H7H5.5V8V7.5l0,0h-1V7V6.5h1l0,0V6V5.5H7h0.5V5z M8,7V6.5H7.5H7V7v0.5h0.5H8V7z M10,9V8.5
			H9.5H9V9v0.5h0.5H10V9z"/>
	</g>
	<g>
		<path fill="#8ED7F7" d="M17.5-2v-0.5h1l0,0V-2v0.5H20h0.5V-1v0.5H20h-1.5V0v0.5H20h0.5V1v0.5h1l0,0V2v0.5l0,0h-1V3v0.5H20h-1.5V4
			v0.5l0,0h-1V4V3.5h-1h-2V3V2.5h2h1V2V1.5H17h-1.5V1V0.5l0,0h-1V0v-0.5h1l0,0V-1v-0.5H17h0.5V-2z M18,0v-0.5h-0.5H17V0v0.5h0.5H18
			V0z M20,2V1.5h-0.5H19V2v0.5h0.5H20V2z"/>
	</g>
	<g>
		<path fill="#8ED7F7" d="M43-2.5V-3h1l0,0v0.5V-2h1.5H46v0.5V-1h-0.5H44v0.5V0h1.5H46v0.5V1h1l0,0v0.5V2l0,0h-1v0.5V3h-0.5H44v0.5
			V4l0,0h-1V3.5V3h-1h-2V2.5V2h2h1V1.5V1h-0.5H41V0.5V0l0,0h-1v-0.5V-1h1l0,0v-0.5V-2h1.5H43V-2.5z M43.5-0.5V-1H43h-0.5v0.5V0H43
			h0.5V-0.5z M45.5,1.5V1H45h-0.5v0.5V2H45h0.5V1.5z"/>
	</g>
	<g>
		<path fill="#8ED7F7" d="M69,1.5V1h1l0,0v0.5V2h1.5H72v0.5V3h-0.5H70v0.5V4h1.5H72v0.5V5h1l0,0v0.5V6l0,0h-1v0.5V7h-0.5H70v0.5V8
			l0,0h-1V7.5V7h-1h-2V6.5V6h2h1V5.5V5h-0.5H67V4.5V4l0,0h-1V3.5V3h1l0,0V2.5V2h1.5H69V1.5z M69.5,3.5V3H69h-0.5v0.5V4H69h0.5V3.5z
			 M71.5,5.5V5H71h-0.5v0.5V6H71h0.5V5.5z"/>
	</g>
	<g>
		<path fill="#8ED7F7" d="M101.5,1.5V1h1l0,0v0.5V2h1.5h0.5v0.5V3H104h-1.5v0.5V4h1.5h0.5v0.5V5h1l0,0v0.5V6l0,0h-1v0.5V7H104h-1.5
			v0.5V8l0,0h-1V7.5V7h-1h-2V6.5V6h2h1V5.5V5H101h-1.5V4.5V4l0,0h-1V3.5V3h1l0,0V2.5V2h1.5h0.5V1.5z M102,3.5V3h-0.5H101v0.5V4h0.5
			h0.5V3.5z M104,5.5V5h-0.5H103v0.5V6h0.5h0.5V5.5z"/>
	</g>
	<g>
		<path fill="#8ED7F7" d="M90.5,44v-0.5h1l0,0V44v0.5H93h0.5V45v0.5H93h-1.5V46v0.5H93h0.5V47v0.5h1l0,0V48v0.5l0,0h-1V49v0.5H93
			h-1.5V50v0.5l0,0h-1V50v-0.5h-1h-2V49v-0.5h2h1V48v-0.5H90h-1.5V47v-0.5l0,0h-1V46v-0.5h1l0,0V45v-0.5H90h0.5V44z M91,46v-0.5
			h-0.5H90V46v0.5h0.5H91V46z M93,48v-0.5h-0.5H92V48v0.5h0.5H93V48z"/>
	</g>
	<g>
		<path fill="#8ED7F7" d="M109.5,37.5V37h1l0,0v0.5V38h1.5h0.5v0.5V39H112h-1.5v0.5V40h1.5h0.5v0.5V41h1l0,0v0.5V42l0,0h-1v0.5V43
			H112h-1.5v0.5V44l0,0h-1v-0.5V43h-1h-2v-0.5V42h2h1v-0.5V41H109h-1.5v-0.5V40l0,0h-1v-0.5V39h1l0,0v-0.5V38h1.5h0.5V37.5z
			 M110,39.5V39h-0.5H109v0.5V40h0.5h0.5V39.5z M112,41.5V41h-0.5H111v0.5V42h0.5h0.5V41.5z"/>
	</g>
	<g>
		<path fill="#8ED7F7" d="M68,42.5V42h1l0,0v0.5V43h1.5H71v0.5V44h-0.5H69v0.5V45h1.5H71v0.5V46h1l0,0v0.5V47l0,0h-1v0.5V48h-0.5H69
			v0.5V49l0,0h-1v-0.5V48h-1h-2v-0.5V47h2h1v-0.5V46h-0.5H66v-0.5V45l0,0h-1v-0.5V44h1l0,0v-0.5V43h1.5H68V42.5z M68.5,44.5V44H68
			h-0.5v0.5V45H68h0.5V44.5z M70.5,46.5V46H70h-0.5v0.5V47H70h0.5V46.5z"/>
	</g>
	<g>
		<path fill="#8ED7F7" d="M43.5,56.5V56h1l0,0v0.5V57H46h0.5v0.5V58H46h-1.5v0.5V59H46h0.5v0.5V60h1l0,0v0.5V61l0,0h-1v0.5V62H46
			h-1.5v0.5V63l0,0h-1v-0.5V62h-1h-2v-0.5V61h2h1v-0.5V60H43h-1.5v-0.5V59l0,0h-1v-0.5V58h1l0,0v-0.5V57H43h0.5V56.5z M44,58.5V58
			h-0.5H43v0.5V59h0.5H44V58.5z M46,60.5V60h-0.5H45v0.5V61h0.5H46V60.5z"/>
	</g>
	<g>
		<path fill="#8ED7F7" d="M11,43v-0.5h1l0,0V43v0.5h1.5H14V44v0.5h-0.5H12V45v0.5h1.5H14V46v0.5h1l0,0V47v0.5l0,0h-1V48v0.5h-0.5H12
			V49v0.5l0,0h-1V49v-0.5h-1H8V48v-0.5h2h1V47v-0.5h-0.5H9V46v-0.5l0,0H8V45v-0.5h1l0,0V44v-0.5h1.5H11V43z M11.5,45v-0.5H11h-0.5
			V45v0.5H11h0.5V45z M13.5,47v-0.5H13h-0.5V47v0.5H13h0.5V47z"/>
	</g>
	<g>
		<path fill="#8ED7F7" d="M22,39.5V39h1l0,0v0.5V40h1.5H25v0.5V41h-0.5H23v0.5V42h1.5H25v0.5V43h1l0,0v0.5V44l0,0h-1v0.5V45h-0.5H23
			v0.5V46l0,0h-1v-0.5V45h-1h-2v-0.5V44h2h1v-0.5V43h-0.5H20v-0.5V42l0,0h-1v-0.5V41h1l0,0v-0.5V40h1.5H22V39.5z M22.5,41.5V41H22
			h-0.5v0.5V42H22h0.5V41.5z M24.5,43.5V43H24h-0.5v0.5V44H24h0.5V43.5z"/>
	</g>
	<g>
		<path fill="#FFFFFF" d="M79,75.5V72h1h1v0.5V73h0.5H82v0.5V74h0.5H83v-0.5V73h0.5H84v-0.5V72h1h1v3.5V79h-1h-1v-1.5V76h-0.5H83
			v0.5V77h-0.5H82v-0.5V76h-0.5H81v1.5V79h-1h-1V75.5z"/>
		<path fill="#FFFFFF" d="M89,72.5V72h1.5H92v0.5V73h0.5H93v0.5V74h0.5H94v2.5V79h-1h-1v-1v-1h-1.5H89v1v1h-1h-1v-2.5V74h0.5H88
			v-0.5V73h0.5H89V72.5z M91,73.5V73h-0.5H90v0.5V74h-0.5H89v1v1h1.5H92v-1v-1h-0.5H91V73.5z"/>
		<path fill="#FFFFFF" d="M96,72.5V72h2h2v0.5V73h0.5h0.5v0.5V74h-1h-1v-0.5V73h-1h-1v1v1h2h2v0.5V76h0.5h0.5v1v1h-0.5H101v0.5V79
			h-2.5H96v-0.5V78h-0.5H95v-0.5V77h1h1v0.5V78h1.5h1.5v-1v-1h-2h-2v-0.5V75h-0.5H95v-1v-1h0.5H96V72.5z"/>
		<path fill="#FFFFFF" d="M111,75.5V72h1h1v0.5V73h0.5h0.5v0.5V74h0.5h0.5v0.5V75h0.5h0.5v-1.5V72h1h1v3.5V79h-1h-1v-0.5V78h-0.5
			H115v-0.5V77h-0.5H114v-0.5V76h-0.5H113v1.5V79h-1h-1V75.5z"/>
		<path fill="#FFFFFF" d="M121,72.5V72h1h1v0.5V73h0.5h0.5v-0.5V72h0.5h0.5v0.5V73h-0.5H124v1v1h0.5h0.5v0.5V76h0.5h0.5v1.5V79h-1
			h-1v-0.5V78h-1.5H121v0.5V79h-1h-1v-1.5V76h0.5h0.5v-0.5V75h0.5h0.5v-0.5V74h-0.5H120v-0.5V73h0.5h0.5V72.5z M122,73.5V73h-0.5
			H121v0.5V74h0.5h0.5V73.5z M123,75.5V75h-0.5H122v0.5V76h-0.5H121v0.5V77h1.5h1.5v-0.5V76h-0.5H123V75.5z"/>
		<path fill="#FFFFFF" d="M128,72.5V72h2.5h2.5v0.5V73h0.5h0.5v2.5V78h-0.5H133v0.5V79h-2.5H128v-0.5V78h-0.5H127v-2.5V73h0.5h0.5
			V72.5z M132,75.5V73h-1.5H129v2.5V78h1.5h1.5V75.5z"/>
		<path fill="#FFFFFF" d="M144,72.5V72h2h2v0.5V73h0.5h0.5v0.5V74h-1h-1v-0.5V73h-1h-1v1v1h2h2v0.5V76h0.5h0.5v1v1h-0.5H149v0.5V79
			h-2.5H144v-0.5V78h-0.5H143v-0.5V77h1h1v0.5V78h1.5h1.5v-1v-1h-2h-2v-0.5V75h-0.5H143v-1v-1h0.5h0.5V72.5z"/>
		<path fill="#FFFFFF" d="M151,75.5V72h3.5h3.5v0.5V73h-2.5H153v1v1h2h2v0.5V76h-2h-2v1v1h2.5h2.5v0.5V79h-3.5H151V75.5z"/>
		<path fill="#FFFFFF" d="M167,75.5V72h2.5h2.5v0.5V73h0.5h0.5v0.5V74h0.5h0.5v1.5V77h-0.5H173v0.5V78h-0.5H172v0.5V79h-2.5H167
			V75.5z M171,73.5V73h-1h-1v2.5V78h1h1v-0.5V77h0.5h0.5v-1.5V74h-0.5H171V73.5z"/>
		<path fill="#FFFFFF" d="M175,75.5V72h3.5h3.5v0.5V73h-2.5H177v1v1h2h2v0.5V76h-2h-2v1v1h2.5h2.5v0.5V79h-3.5H175V75.5z"/>
		<path fill="#FFFFFF" d="M184,72.5V72h2h2v0.5V73h0.5h0.5v0.5V74h-1h-1v-0.5V73h-1h-1v1v1h2h2v0.5V76h0.5h0.5v1v1h-0.5H189v0.5V79
			h-2.5H184v-0.5V78h-0.5H183v-0.5V77h1h1v0.5V78h1.5h1.5v-1v-1h-2h-2v-0.5V75h-0.5H183v-1v-1h0.5h0.5V72.5z"/>
		<path fill="#FFFFFF" d="M193,72.5V72h1.5h1.5v0.5V73h0.5h0.5v0.5V74h0.5h0.5v2.5V79h-1h-1v-1v-1h-1.5H193v1v1h-1h-1v-2.5V74h0.5
			h0.5v-0.5V73h0.5h0.5V72.5z M195,73.5V73h-0.5H194v0.5V74h-0.5H193v1v1h1.5h1.5v-1v-1h-0.5H195V73.5z"/>
		<path fill="#FFFFFF" d="M199,75.5V72h1h1v0.5V73h0.5h0.5v0.5V74h0.5h0.5v0.5V75h0.5h0.5v-1.5V72h1h1v3.5V79h-1h-1v-0.5V78h-0.5
			H203v-0.5V77h-0.5H202v-0.5V76h-0.5H201v1.5V79h-1h-1V75.5z"/>
		<path fill="#FFFFFF" d="M208,72.5V72h3h3v0.5V73h-1h-1v2.5V78h1h1v0.5V79h-3h-3v-0.5V78h1h1v-2.5V73h-1h-1V72.5z"/>
		<path fill="#FFFFFF" d="M215,75.5V72h1h1v0.5V73h0.5h0.5v0.5V74h0.5h0.5v-0.5V73h0.5h0.5v-0.5V72h1h1v3.5V79h-1h-1v-1.5V76h-0.5
			H219v0.5V77h-0.5H218v-0.5V76h-0.5H217v1.5V79h-1h-1V75.5z"/>
		<path fill="#FFFFFF" d="M223,75.5V72h3.5h3.5v0.5V73h-2.5H225v1v1h2h2v0.5V76h-2h-2v1v1h2.5h2.5v0.5V79h-3.5H223V75.5z"/>
		<path fill="#FFFFFF" d="M233,74.5V72h1.5h1.5v1.5V75h-0.5H235v1v1h-1h-1V74.5z M233,78.5V78h1h1v0.5V79h-1h-1V78.5z"/>
		<path fill="#FFFFFF" d="M77,88.5V88h1.5H80v0.5V89h0.5H81v0.5V90h0.5H82v2.5V95h-1h-1v-1v-1h-1.5H77v1v1h-1h-1v-2.5V90h0.5H76
			v-0.5V89h0.5H77V88.5z M79,89.5V89h-0.5H78v0.5V90h-0.5H77v1v1h1.5H80v-1v-1h-0.5H79V89.5z"/>
		<path fill="#FFFFFF" d="M84,88.5V88h3h3v0.5V89h-1h-1v2.5V94h1h1v0.5V95h-3h-3v-0.5V94h1h1v-2.5V89h-1h-1V88.5z"/>
		<path fill="#FFFFFF" d="M91,91.5V88h1h1v0.5V89h0.5H94v0.5V90h0.5H95v0.5V91h0.5H96v-1.5V88h1h1v3.5V95h-1h-1v-0.5V94h-0.5H95
			v-0.5V93h-0.5H94v-0.5V92h-0.5H93v1.5V95h-1h-1V91.5z"/>
		<path fill="#FFFFFF" d="M99,91.5V88h2.5h2.5v0.5V89h0.5h0.5v0.5V90h0.5h0.5v1.5V93h-0.5H105v0.5V94h-0.5H104v0.5V95h-2.5H99V91.5z
			 M103,89.5V89h-1h-1v2.5V94h1h1v-0.5V93h0.5h0.5v-1.5V90h-0.5H103V89.5z"/>
		<path fill="#FFFFFF" d="M109,88.5V88h1.5h1.5v0.5V89h0.5h0.5v0.5V90h0.5h0.5v2.5V95h-1h-1v-1v-1h-1.5H109v1v1h-1h-1v-2.5V90h0.5
			h0.5v-0.5V89h0.5h0.5V88.5z M111,89.5V89h-0.5H110v0.5V90h-0.5H109v1v1h1.5h1.5v-1v-1h-0.5H111V89.5z"/>
		<path fill="#FFFFFF" d="M123,91.5V88h3h3v0.5V89h0.5h0.5v1.5V92h-0.5H129v0.5V93h-2h-2v1v1h-1h-1V91.5z M128,90.5V89h-1.5H125v1.5
			V92h1.5h1.5V90.5z"/>
		<path fill="#FFFFFF" d="M132,88.5V88h2.5h2.5v0.5V89h0.5h0.5v2.5V94h-0.5H137v0.5V95h-2.5H132v-0.5V94h-0.5H131v-2.5V89h0.5h0.5
			V88.5z M136,91.5V89h-1.5H133v2.5V94h1.5h1.5V91.5z"/>
		<path fill="#FFFFFF" d="M139,91.5V88h2.5h2.5v0.5V89h0.5h0.5v0.5V90h0.5h0.5v1.5V93h-0.5H145v0.5V94h-0.5H144v0.5V95h-2.5H139
			V91.5z M143,89.5V89h-1h-1v2.5V94h1h1v-0.5V93h0.5h0.5v-1.5V90h-0.5H143V89.5z"/>
		<path fill="#FFFFFF" d="M147,91.5V88h3.5h3.5v0.5V89h-2.5H149v1v1h2h2v0.5V92h-2h-2v1v1h2.5h2.5v0.5V95h-3.5H147V91.5z"/>
		<path fill="#FFFFFF" d="M155,91.5V88h1h1v0.5V89h0.5h0.5v0.5V90h0.5h0.5v-0.5V89h0.5h0.5v-0.5V88h1h1v3.5V95h-1h-1v-1.5V92h-0.5
			H159v0.5V93h-0.5H158v-0.5V92h-0.5H157v1.5V95h-1h-1V91.5z"/>
		<path fill="#FFFFFF" d="M164,88.5V88h2.5h2.5v0.5V89h0.5h0.5v2.5V94h-0.5H169v0.5V95h-2.5H164v-0.5V94h-0.5H163v-2.5V89h0.5h0.5
			V88.5z M168,91.5V89h-1.5H165v2.5V94h1.5h1.5V91.5z"/>
		<path fill="#FFFFFF" d="M172,88.5V88h2h2v0.5V89h0.5h0.5v0.5V90h-1h-1v-0.5V89h-1h-1v1v1h2h2v0.5V92h0.5h0.5v1v1h-0.5H177v0.5V95
			h-2.5H172v-0.5V94h-0.5H171v-0.5V93h1h1v0.5V94h1.5h1.5v-1v-1h-2h-2v-0.5V91h-0.5H171v-1v-1h0.5h0.5V88.5z"/>
		<path fill="#FFFFFF" d="M187,91.5V88h2.5h2.5v0.5V89h0.5h0.5v0.5V90h0.5h0.5v1.5V93h-0.5H193v0.5V94h-0.5H192v0.5V95h-2.5H187
			V91.5z M191,89.5V89h-1h-1v2.5V94h1h1v-0.5V93h0.5h0.5v-1.5V90h-0.5H191V89.5z"/>
		<path fill="#FFFFFF" d="M195,91.5V88h3.5h3.5v0.5V89h-2.5H197v1v1h2h2v0.5V92h-2h-2v1v1h2.5h2.5v0.5V95h-3.5H195V91.5z"/>
		<path fill="#FFFFFF" d="M204,88.5V88h3h3v0.5V89h-1h-1v3v3h-1h-1v-3v-3h-1h-1V88.5z"/>
		<path fill="#FFFFFF" d="M213,88.5V88h1.5h1.5v0.5V89h0.5h0.5v0.5V90h0.5h0.5v0.5V91h-2.5H213v0.5V92h2h2v0.5V93h-2h-2v0.5V94h2.5
			h2.5v0.5V95h-3.5H211v-2.5V90h0.5h0.5v-0.5V89h0.5h0.5V88.5z M215,89.5V89h-0.5H214v0.5V90h0.5h0.5V89.5z"/>
		<path fill="#FFFFFF" d="M220,91.5V91h3h3v0.5V92h-3h-3V91.5z"/>
		<path fill="#FFFFFF" d="M228,91.5V88h1h1v3v3h2h2v0.5V95h-3h-3V91.5z"/>
		<path fill="#FFFFFF" d="M237,88.5V88h1.5h1.5v0.5V89h0.5h0.5v0.5V90h0.5h0.5v2.5V95h-1h-1v-1v-1h-1.5H237v1v1h-1h-1v-2.5V90h0.5
			h0.5v-0.5V89h0.5h0.5V88.5z M239,89.5V89h-0.5H238v0.5V90h-0.5H237v1v1h1.5h1.5v-1v-1h-0.5H239V89.5z"/>
		<path fill="#FFFFFF" d="M107,107.5V104h1h1v0.5v0.5h0.5h0.5v0.5v0.5h0.5h0.5v0.5v0.5h0.5h0.5v-1.5V104h1h1v3.5v3.5h-1h-1v-0.5V110
			h-0.5H111v-0.5V109h-0.5H110v-0.5V108h-0.5H109v1.5v1.5h-1h-1V107.5z"/>
		<path fill="#FFFFFF" d="M117,104.5V104h1.5h1.5v0.5v0.5h0.5h0.5v0.5v0.5h0.5h0.5v2.5v2.5h-1h-1v-1v-1h-1.5H117v1v1h-1h-1v-2.5V106
			h0.5h0.5v-0.5V105h0.5h0.5V104.5z M119,105.5V105h-0.5H118v0.5v0.5h-0.5H117v1v1h1.5h1.5v-1v-1h-0.5H119V105.5z"/>
		<path fill="#FFFFFF" d="M131,106v-2h1h1v1.5v1.5h0.5h0.5v0.5v0.5h0.5h0.5v-0.5V107h0.5h0.5v-1.5V104h1h1v2v2h-0.5H137v0.5v0.5
			h-0.5H136v0.5v0.5h-0.5H135v0.5v0.5h-0.5H134v-0.5V110h-0.5H133v-0.5V109h-0.5H132v-0.5V108h-0.5H131V106z"/>
		<path fill="#FFFFFF" d="M140,104.5V104h3h3v0.5v0.5h-1h-1v2.5v2.5h1h1v0.5v0.5h-3h-3v-0.5V110h1h1v-2.5V105h-1h-1V104.5z"/>
		<path fill="#FFFFFF" d="M147,107.5V104h2.5h2.5v0.5v0.5h0.5h0.5v0.5v0.5h0.5h0.5v1.5v1.5h-0.5H153v0.5v0.5h-0.5H152v0.5v0.5h-2.5
			H147V107.5z M151,105.5V105h-1h-1v2.5v2.5h1h1v-0.5V109h0.5h0.5v-1.5V106h-0.5H151V105.5z"/>
		<path fill="#FFFFFF" d="M157,104.5V104h1.5h1.5v0.5v0.5h0.5h0.5v0.5v0.5h0.5h0.5v2.5v2.5h-1h-1v-1v-1h-1.5H157v1v1h-1h-1v-2.5V106
			h0.5h0.5v-0.5V105h0.5h0.5V104.5z M159,105.5V105h-0.5H158v0.5v0.5h-0.5H157v1v1h1.5h1.5v-1v-1h-0.5H159V105.5z"/>
		<path fill="#FFFFFF" d="M171,107.5V104h3h3v0.5v0.5h0.5h0.5v1.5v1.5h-1h-1v0.5v0.5h0.5h0.5v0.5v0.5h0.5h0.5v0.5v0.5h-1.5H175v-0.5
			V110h-0.5H174v-0.5V109h-0.5H173v1v1h-1h-1V107.5z M176,106v-1h-1.5H173v1.5v1.5h1h1v-0.5V107h0.5h0.5V106z"/>
		<path fill="#FFFFFF" d="M179,107.5V104h3.5h3.5v0.5v0.5h-2.5H181v1v1h2h2v0.5v0.5h-2h-2v1v1h2.5h2.5v0.5v0.5h-3.5H179V107.5z"/>
		<path fill="#FFFFFF" d="M189,104.5V104h1.5h1.5v0.5v0.5h0.5h0.5v0.5v0.5h0.5h0.5v2.5v2.5h-1h-1v-1v-1h-1.5H189v1v1h-1h-1v-2.5V106
			h0.5h0.5v-0.5V105h0.5h0.5V104.5z M191,105.5V105h-0.5H190v0.5v0.5h-0.5H189v1v1h1.5h1.5v-1v-1h-0.5H191V105.5z"/>
		<path fill="#FFFFFF" d="M196,107.5V104h1h1v3v3h2h2v0.5v0.5h-3h-3V107.5z"/>
		<path fill="#FFFFFF" d="M205,110v-1h1h1v1v1h-1h-1V110z"/>
	</g>
</g>
</svg>
