<?xml version="1.0" encoding="utf-8"?>
<!-- Generator: Adobe Illustrator 16.0.0, SVG Export Plug-In . SVG Version: 6.00 Build 0)  -->
<!DOCTYPE svg PUBLIC "-//W3C//DTD SVG 1.1//EN" "http://www.w3.org/Graphics/SVG/1.1/DTD/svg11.dtd">
<svg version="1.1" id="Layer_1" xmlns="http://www.w3.org/2000/svg" xmlns:xlink="http://www.w3.org/1999/xlink" x="0px" y="0px"
	 width="620px" height="440px" viewBox="0 0 620 440" enable-background="new 0 0 620 440" xml:space="preserve">
<path fill="none" stroke="#6414DC" stroke-width="2" stroke-miterlimit="10" d="M120,330c5.523,0,10-4.477,10-10v-40
	c0-5.523-4.477-10-10-10H79.999c-5.523,0-9.999,4.476-9.999,9.999V380c0,5.522,4.477,10,10,10s10-4.478,10-10v-40
	c0-5.523,4.477-10,10-10H120z"/>
<g>
	<path fill="none" stroke="#6414DC" stroke-width="2" stroke-miterlimit="10" d="M0,181h40c0.552,0,1-0.448,1-1V20
		C41,9.506,49.506,1,60,1h500c10.494,0,19,8.506,19,19v160c0,0.552,0.447,1,1,1h40"/>
	<path fill="none" stroke="#6414DC" stroke-width="2" stroke-miterlimit="10" d="M0,190h40c5.523,0,10-4.477,10-10V20
		c0-5.523,4.477-10,10-10h500c5.523,0,10,4.477,10,10v160c0,5.523,4.478,10,10,10h40"/>
</g>
<path fill="none" stroke="#6414DC" stroke-width="2" stroke-miterlimit="10" d="M0,239h20c0.552,0,1,0.448,1,1v180
	c0,10.494,8.506,19,19,19h540c10.494,0,19-8.506,19-19V240c0-0.552,0.447-1,1-1h20"/>
<path fill="none" stroke="#6414DC" stroke-width="2" stroke-miterlimit="10" d="M0,230h20c5.523,0,10,4.477,10,10v180
	c0,5.523,4.477,10,10,10h540c5.523,0,10-4.477,10-10V240c0-5.523,4.478-10,10-10h20"/>
<circle fill="none" stroke="#6414DC" stroke-width="2" stroke-miterlimit="10" cx="100" cy="300" r="10"/>
<path fill="none" stroke="#6414DC" stroke-width="2" stroke-miterlimit="10" d="M160,70c5.523,0,10-4.477,10-10s-4.477-10-10-10h-60
	c-5.523,0-10,4.477-10,10v100c0,5.523,4.477,10,10,10s10-4.477,10-10v-20c0-5.523,4.477-10,10-10h40c5.523,0,10-4.477,10-10
	s-4.477-10-10-10h-40c-5.523,0-10-4.477-10-10V80c0-5.523,4.477-10,10-10H160z"/>
<path fill="none" stroke="#6414DC" stroke-width="2" stroke-miterlimit="10" d="M280,170c5.523,0,10-4.477,10-10V60
	c0-5.523-4.477-10-10-10h-60c-5.523,0-10,4.477-10,10v100c0,5.523,4.477,10,10,10h19v-9h-19c-0.552,0-1-0.448-1-1V60
	c0-0.552,0.448-1,1-1h60c0.552,0,1,0.448,1,1v100c0,0.552-0.448,1-1,1h-19v9H280z"/>
<path fill="none" stroke="#6414DC" stroke-width="2" stroke-miterlimit="10" d="M380,90c5.522,0,10-4.477,10-10s-4.478-10-10-10h-20
	c-5.522,0-10,4.477-10,10s4.478,10,10,10H380z"/>
<path fill="none" stroke="#6414DC" stroke-width="2" stroke-miterlimit="10" d="M500,70c5.522,0,10,4.477,10,10s-4.478,10-10,10h-20
	c-5.522,0-10-4.477-10-10s4.478-10,10-10H500z"/>
<path fill="none" stroke="#6414DC" stroke-width="2" stroke-miterlimit="10" d="M450,60c0-5.523,4.478-10,10-10h60
	c5.522,0,10,4.477,10,10v100c0,5.523-4.478,10-10,10s-10-4.477-10-10v-40c0-5.523-4.478-10-10-10h-20c-5.522,0-10,4.477-10,10v40
	c0,5.523-4.478,10-10,10s-10-4.477-10-10V60z"/>
<path fill="none" stroke="#6414DC" stroke-width="2" stroke-miterlimit="10" d="M340,230c-5.522,0-10-4.477-10-10s4.478-10,10-10
	h180c5.522,0,10,4.477,10,10s-4.478,10-10,10H340z"/>
<path fill="none" stroke="#6414DC" stroke-width="2" stroke-miterlimit="10" d="M280,230c5.523,0,10-4.477,10-10s-4.477-10-10-10
	H100c-5.523,0-10,4.477-10,10s4.477,10,10,10H280z"/>
<path fill="none" stroke="#6414DC" stroke-width="2" stroke-miterlimit="10" d="M170,380c0,5.522,4.477,10,10,10h40
	c5.523,0,10-4.478,10-10s-4.477-10-10-10h-20c-5.523,0-10-4.478-10-10v-20c0-5.522,4.477-10,10-10h20c5.523,0,10-4.478,10-10
	s-4.477-10-10-10h-20c-5.523,0-10-4.478-10-10s4.477-10,10-10h20c5.523,0,10-4.478,10-10s-4.477-10-10-10h-40
	c-5.523,0-10,4.478-10,10V380z"/>
<path fill="none" stroke="#6414DC" stroke-width="2" stroke-miterlimit="10" d="M270,380c0,5.522,4.477,10,10,10h40
	c5.523,0,10-4.478,10-10s-4.477-10-10-10h-20c-5.523,0-10-4.478-10-10v-60c0-5.522,4.477-10,10-10h20c5.523,0,10-4.478,10-10
	s-4.477-10-10-10h-40c-5.523,0-10,4.478-10,10V380z"/>
<path fill="none" stroke="#6414DC" stroke-width="2" stroke-miterlimit="10" d="M450,380c0,5.522-4.477,10-10,10h-40
	c-5.523,0-10-4.478-10-10s4.477-10,10-10h20c5.523,0,10-4.478,10-10v-20c0-5.522-4.478-10-10-10h-20c-5.522,0-10-4.478-10-10v-40
	c0-5.522,4.477-10,10-10h40c5.523,0,10,4.478,10,10s-4.477,10-10,10h-20c-5.523,0-10,4.478-10,10s4.477,10,10,10h20
	c5.522,0,10,4.478,10,10V380z"/>
<path fill="none" stroke="#6414DC" stroke-width="2" stroke-miterlimit="10" d="M550,380c0,5.522-4.477,10-10,10h-40
	c-5.523,0-10-4.478-10-10s4.477-10,10-10h20c5.523,0,10-4.478,10-10v-20c0-5.522-4.478-10-10-10h-20c-5.522,0-10-4.478-10-10v-40
	c0-5.522,4.477-10,10-10h40c5.523,0,10,4.478,10,10s-4.477,10-10,10h-20c-5.523,0-10,4.478-10,10s4.477,10,10,10h20
	c5.522,0,10,4.478,10,10V380z"/>
<line fill="none" stroke="#EA96AF" stroke-width="2" stroke-miterlimit="10" x1="240" y1="170" x2="260" y2="170"/>
<path fill="none" stroke="#6414DC" stroke-width="2" stroke-miterlimit="10" d="M410,60c0-5.523-4.478-10-10-10h-60
	c-5.522,0-10,4.477-10,10v100c0,5.523,4.478,10,10,10s10-4.477,10-10v-40c0-5.523,4.478-10,10-10s10,4.477,10,10v40
	c0,5.523,4.478,10,10,10h20c5.522,0,10-4.477,10-10s-4.478-10-10-10s-10-4.477-10-10v-20c0-5.523,4.478-10,10-10s10-4.477,10-10V60z
	"/>
</svg>
