<?xml version="1.0" encoding="utf-8"?>
<!-- Generator: Adobe Illustrator 16.0.0, SVG Export Plug-In . SVG Version: 6.00 Build 0)  -->
<!DOCTYPE svg PUBLIC "-//W3C//DTD SVG 1.1//EN" "http://www.w3.org/Graphics/SVG/1.1/DTD/svg11.dtd">
<svg version="1.1" id="Layer_1" xmlns="http://www.w3.org/2000/svg" xmlns:xlink="http://www.w3.org/1999/xlink" x="0px" y="0px"
	 width="28px" height="28px" viewBox="0 0 28 28" enable-background="new 0 0 28 28" xml:space="preserve">
<g id="protester-we">
	<g id="we1">
		<rect id="XMLID_59_" x="12" fill="#FCD00C" width="5" height="1"/>
		<path id="XMLID_54_" fill="#8ED7F7" d="M17,24v-3h3v3H17z M9,20v7h3v-5h3v-3h2v1h3v1h3v-4h-3v-1h-3v-1h-5v5H9z M23,24h-3v1h3V24z
			 M15,27h-3v1h3V27z"/>
		<polygon id="XMLID_53_" fill="#FCD00C" points="15,1 17,1 17,4 15,4 15,5 12,5 12,4 12,1 		"/>
		<polygon id="XMLID_52_" fill="#F05B88" points="17,5 17,10 20,10 20,13 17,13 17,15 12,15 12,13 12,10 12,5 		"/>
	</g>
	<g id="we2">
		<rect id="XMLID_51_" x="12" fill="#FCD00C" width="5" height="1"/>
		<polygon id="XMLID_50_" fill="#8ED7F7" points="7,23 7,20 9,20 9,17 12,17 12,15 17,15 17,16 20,16 20,17 23,17 23,21 23,23 
			26,23 26,24 23,24 20,24 20,21 20,20 17,20 17,19 12,19 12,23 9,23 9,24 7,24 7,27 4,27 4,23 		"/>
		<polygon id="XMLID_49_" fill="#FCD00C" points="15,1 17,1 17,4 15,4 15,5 12,5 12,4 12,1 		"/>
		<polygon id="XMLID_48_" fill="#F05B88" points="12,8 12,5 17,5 17,10 20,10 20,9 22,9 22,12 20,12 20,13 17,13 17,15 12,15 12,13 
			9,13 9,8 		"/>
	</g>
	<g id="we3">
		<rect id="XMLID_14_" x="12" fill="#FCD00C" width="5" height="1"/>
		<polygon id="XMLID_13_" fill="#8ED7F7" points="9,17 9,18 9,19 12,19 12,15 17,15 20,15 20,16 23,16 23,20 25,20 25,21 23,21 
			22,21 20,21 20,18 17,18 17,19 15,19 15,22 9,22 9,20 6,20 6,18 4,18 4,17 		"/>
		<polygon id="XMLID_12_" fill="#FCD00C" points="15,1 17,1 17,4 15,4 15,5 12,5 12,4 12,1 		"/>
		<polygon id="XMLID_11_" fill="#F05B88" points="9,9 9,8 12,8 12,5 17,5 17,8 20,8 20,7 23,7 23,9 20,9 20,11 17,11 17,15 12,15 
			12,11 9,11 9,13 6,13 6,9 		"/>
	</g>
	<g id="we4">
		<rect id="XMLID_43_" x="12" fill="#FCD00C" width="5" height="1"/>
		<polygon id="XMLID_42_" fill="#8ED7F7" points="9,21 12,21 12,20 12,19 12,15 17,15 17,17 20,17 20,24 17,24 17,20 15,20 15,21 
			15,22 15,23 9,23 9,25 6,25 6,21 		"/>
		<polygon id="XMLID_41_" fill="#8ED7F7" points="25,25 23,25 23,26 20,26 20,25 20,24 25,24 		"/>
		<polygon id="XMLID_40_" fill="#FCD00C" points="15,1 17,1 17,4 15,4 15,5 12,5 12,4 12,1 		"/>
		<polygon id="XMLID_39_" fill="#F05B88" points="12,8 12,5 17,5 17,10 20,10 20,9 23,9 23,12 20,12 20,13 17,13 17,15 12,15 12,13 
			9,13 9,8 		"/>
	</g>
	<g id="we5">
		<rect id="XMLID_5_" x="12" fill="#FCD00C" width="5" height="1"/>
		<path id="XMLID_35_" fill="#8ED7F7" d="M9,21v4h3v-2h2v5h1h2h3v-1h-3v-4h3h2h1v-5h-3v-1h-3v-2h-5v4h2v2h-2h-1H9z M17,21v-1h3v1H17
			z"/>
		<polygon id="XMLID_2_" fill="#FCD00C" points="15,1 17,1 17,4 15,4 15,5 12,5 12,4 12,1 		"/>
		<polygon id="XMLID_6_" fill="#F05B88" points="17,5 17,12 20,12 20,15 17,15 12,15 12,12 12,5 		"/>
	</g>
</g>
<g id="protester-nw">
	<g id="ns1">
		<polygon id="XMLID_17_" fill="#8ED7F7" points="10,15 10,20 10,28 13,28 13,20 15,20 15,24 15,25 18,25 18,24 18,20 18,15 		"/>
		<polygon id="XMLID_70_" fill="#FCD00C" points="11,0 11,1 11,1 11,4 12,4 12,5 16,5 16,4 17,4 17,1 17,0 		"/>
		<polygon id="XMLID_36_" fill="#F05B88" points="18,7 18,6 17,6 17,5 11,5 11,6 10,6 10,7 7,7 7,13 9,13 9,10 10,10 10,15 18,15 
			18,10 19,10 19,15 21,15 21,7 		"/>
	</g>
	<g id="ns2">
		<rect id="XMLID_27_" x="11" fill="#FCD00C" width="6" height="1"/>
		<path id="XMLID_23_" fill="#8ED7F7" d="M15,24v-4h3v4H15z M10,20v7h3v-7h5v-5h-8V20z"/>
		<polygon id="XMLID_22_" fill="#FCD00C" points="16,1 17,1 17,4 16,4 16,5 12,5 12,4 12,1 		"/>
		<rect id="XMLID_20_" x="11.1" y="1" fill="#FCD00C" width="2.3" height="3"/>
		<polygon id="XMLID_9_" fill="#F05B88" points="10,10 9,10 9,12 7,12 7,7 10,7 		"/>
		<polygon id="XMLID_15_" fill="#F05B88" points="18,7 18,6 17,6 17,5 11,5 11,6 10,6 10,15 18,15 18,10 19,10 19,14 21,14 21,7 		
			"/>
	</g>
	<g id="ns3">
		<rect id="XMLID_34_" x="11" fill="#FCD00C" width="6" height="1"/>
		<path id="XMLID_31_" fill="#8ED7F7" d="M15,21v-3h3v3H15z M10,20v2h3v-4h5v-3h-8V20z"/>
		<polygon id="XMLID_30_" fill="#FCD00C" points="16,1 17,1 17,4 16,4 16,5 12,5 12,4 12,1 		"/>
		<rect id="XMLID_28_" x="11.1" y="1" fill="#FCD00C" width="2.3" height="3"/>
		<polygon id="XMLID_10_" fill="#F05B88" points="7,7 7,15 9,15 9,10 10,10 10,7 		"/>
		<polygon id="XMLID_18_" fill="#F05B88" points="18,7 18,6 17,6 17,5 11,5 11,6 10,6 10,15 18,15 18,11 18,10 19,10 19,13 21,13 
			21,7 		"/>
	</g>
	<g id="ns4">
		<rect id="XMLID_60_" x="11" fill="#FCD00C" width="6" height="1"/>
		<path id="XMLID_45_" fill="#8ED7F7" d="M15,26v-8h3v8H15z M10,20v5h3v-7h5v-3h-8V20z"/>
		<polygon id="XMLID_44_" fill="#FCD00C" points="16,1 17,1 17,4 16,4 16,5 12,5 12,4 12,1 		"/>
		<rect id="XMLID_37_" x="11.1" y="1" fill="#FCD00C" width="2.3" height="3"/>
		<polygon id="XMLID_16_" fill="#F05B88" points="7,7 7,15 9,15 9,10 10,10 10,7 		"/>
		<polygon id="XMLID_24_" fill="#F05B88" points="18,7 18,6 17,6 17,5 11,5 11,6 10,6 10,15 18,15 18,13 18,10 19,10 19,15 21,15 
			21,7 		"/>
	</g>
	<g id="ns5">
		<rect id="XMLID_68_" x="11" fill="#FCD00C" width="6" height="1"/>
		<path id="XMLID_65_" fill="#8ED7F7" d="M15,28v-9h3v9H15z M10,20v5h3v-6h5v-4h-8V20z"/>
		<polygon id="XMLID_64_" fill="#FCD00C" points="16,1 17,1 17,4 16,4 16,5 12,5 12,4 12,1 		"/>
		<rect id="XMLID_62_" x="11.1" y="1" fill="#FCD00C" width="2.3" height="3"/>
		<polygon id="XMLID_19_" fill="#F05B88" points="7,7 7,16 9,16 9,10 10,10 10,7 		"/>
		<polygon id="XMLID_29_" fill="#F05B88" points="18,7 18,6 17,6 17,5 11,5 11,6 10,6 10,15 18,15 18,12 18,10 19,10 19,14 21,14 
			21,7 		"/>
	</g>
</g>
</svg>
