<?xml version="1.0" encoding="utf-8"?>
<!-- Generator: Adobe Illustrator 16.0.0, SVG Export Plug-In . SVG Version: 6.00 Build 0)  -->
<!DOCTYPE svg PUBLIC "-//W3C//DTD SVG 1.1//EN" "http://www.w3.org/Graphics/SVG/1.1/DTD/svg11.dtd">
<svg version="1.1" id="Layer_1" xmlns="http://www.w3.org/2000/svg" xmlns:xlink="http://www.w3.org/1999/xlink" x="0px" y="0px"
	 width="316px" height="280px" viewBox="0.5 -30 316 280" enable-background="new 0.5 -30 316 280" xml:space="preserve">
<g>
	<path fill="#F05B88" d="M132.5,203h-26c-2.75,0-5,2.25-5,5v26c0,2.75,2.25,5,5,5h26c2.75,0,5-2.25,5-5v-26
		C137.5,205.25,135.25,203,132.5,203L132.5,203z M106.5,236c-1.084,0-2-0.916-2-2v-26c0-1.084,0.916-2,2-2h26c1.084,0,2,0.916,2,2
		v26c0,1.084-0.916,2-2,2H106.5z"/>
	<path fill="#F05B88" d="M171.5,203h-26c-2.75,0-5,2.25-5,5v26c0,2.75,2.25,5,5,5h26c2.75,0,5-2.25,5-5v-26
		C176.5,205.25,174.25,203,171.5,203L171.5,203z M145.5,236c-1.084,0-2-0.916-2-2v-26c0-1.084,0.916-2,2-2h26c1.084,0,2,0.916,2,2
		v26c0,1.084-0.916,2-2,2H145.5z"/>
	<path fill="#F05B88" d="M171.5,164h-26c-2.75,0-5,2.25-5,5v26c0,2.75,2.25,5,5,5h26c2.75,0,5-2.25,5-5v-26
		C176.5,166.25,174.25,164,171.5,164L171.5,164z M145.5,197c-1.084,0-2-0.916-2-2v-26c0-1.084,0.916-2,2-2h26c1.084,0,2,0.916,2,2
		v26c0,1.084-0.916,2-2,2H145.5z"/>
	<path fill="#F05B88" d="M210.5,203h-26c-2.75,0-5,2.25-5,5v26c0,2.75,2.25,5,5,5h26c2.75,0,5-2.25,5-5v-26
		C215.5,205.25,213.25,203,210.5,203L210.5,203z M184.5,236c-1.084,0-2-0.916-2-2v-26c0-1.084,0.916-2,2-2h26c1.084,0,2,0.916,2,2
		v26c0,1.084-0.916,2-2,2H184.5z"/>
	<polygon fill="#F05B88" points="114.5,222 108.5,226 114.5,230 114.5,227 125.5,227 125.5,225 114.5,225 	"/>
	<polygon fill="#F05B88" points="147.5,227 151.5,233 155.5,227 152.5,227 152.5,216 150.5,216 150.5,227 	"/>
	<polygon fill="#F05B88" points="155.501,176 151.501,170 147.501,176 150.5,176 150.5,187 152.5,187 152.5,176 	"/>
	<polygon fill="#F05B88" points="203.5,230 209.5,226 203.5,222 203.5,225 192.5,225 192.5,227 203.5,227 	"/>
</g>
<path fill="#FCD00C" d="M172.5,66c5.073,0,9.502,2.707,11.958,6.747L168.5,80l15.958,7.253C182.002,91.293,177.573,94,172.5,94
	c-7.73,0-14-6.268-14-14S164.769,66,172.5,66z"/>
<g id="protester-we">
	<g id="we1" display="none">
		<rect id="XMLID_59_" x="74.5" y="69" display="inline" fill="#FCD00C" width="5" height="1"/>
		<path id="XMLID_54_" display="inline" fill="#8ED7F7" d="M79.5,93v-3h3v3H79.5z M71.5,89v7h3v-5h3v-3h2v1h3v1h3v-4h-3v-1h-3v-1h-5
			v5H71.5z M85.5,93h-3v1h3V93z M77.5,96h-3v1h3V96z"/>
		<polygon id="XMLID_53_" display="inline" fill="#FCD00C" points="78,70 79.5,70 79.5,73 77.5,73 77.5,74 74.5,74 74.5,73 74.5,70 
					"/>
		<polygon id="XMLID_52_" display="inline" fill="#F05B88" points="79.5,74 79.5,79 82.5,79 82.5,82 79.5,82 79.5,84 74.5,84 
			74.5,82 74.5,79 74.5,74 		"/>
	</g>
	<g id="we2" display="none">
		<rect id="XMLID_51_" x="74.5" y="69" display="inline" fill="#FCD00C" width="5" height="1"/>
		<polygon id="XMLID_50_" display="inline" fill="#8ED7F7" points="69.5,92 69.5,89 71.5,89 71.5,86 74.5,86 74.5,84 79.5,84 
			79.5,85 82.5,85 82.5,86 85.5,86 85.5,90 85.5,92 88.5,92 88.5,93 86,93 82.5,93 82.5,90 82.5,89 79.5,89 79.5,88 74.5,88 
			74.5,92 71.5,92 71.5,93 69.5,93 69.5,96 66.5,96 66.5,92 		"/>
		<polygon id="XMLID_49_" display="inline" fill="#FCD00C" points="78,70 79.5,70 79.5,73 77.5,73 77.5,74 74.5,74 74.5,73 74.5,70 
					"/>
		<polygon id="XMLID_48_" display="inline" fill="#F05B88" points="74.5,77 74.5,74 79.5,74 79.5,79 82.5,79 82.5,78 84.5,78 
			84.5,81 82.5,81 82.5,82 79.5,82 79.5,84 74.5,84 74.5,82 71.5,82 71.5,77 		"/>
	</g>
	<g id="we3">
		<polygon id="XMLID_13_" fill="#8ED7F7" points="71.5,86 71.5,87 71.5,88 74.5,88 74.5,84 80,84 82.5,84 82.5,85 85.5,85 85.5,89 
			87.5,89 87.5,90 86,90 85,90 82.5,90 82.5,87 79.5,87 79.5,88 77.5,88 77.5,91 71.5,91 71.5,89 68.5,89 68.5,87 66.5,87 66.5,86 
					"/>
		<polygon fill="#FCD00C" points="74.5,69 74.5,70 74.5,73 74.5,74 77.5,74 77.5,73 79.5,73 79.5,70 79.5,69 		"/>
		<polygon id="XMLID_11_" fill="#F05B88" points="71.5,78 71.5,77 74.5,77 74.5,74 79.5,74 79.5,77 82.5,77 82.5,76 85.5,76 
			85.5,78 82.5,78 82.5,80 79.5,80 79.5,84 74.5,84 74.5,80 71.5,80 71.5,82 68.5,82 68.5,78 		"/>
	</g>
	<g id="we4" display="none">
		<rect id="XMLID_43_" x="74.5" y="69" display="inline" fill="#FCD00C" width="5" height="1"/>
		<polygon id="XMLID_42_" display="inline" fill="#8ED7F7" points="72,90 74.5,90 74.5,89 74.5,88 74.5,84 79.5,84 79.5,86 82.5,86 
			82.5,93 79.5,93 79.5,89 77.5,89 77.5,90 77.5,91 77.5,92 71.5,92 71.5,94 68.5,94 68.5,90 		"/>
		<polygon id="XMLID_41_" display="inline" fill="#8ED7F7" points="87.5,94 85.5,94 85.5,95 82.5,95 82.5,94 82.5,93 87.5,93 		"/>
		<polygon id="XMLID_40_" display="inline" fill="#FCD00C" points="78,70 79.5,70 79.5,73 77.5,73 77.5,74 74.5,74 74.5,73 74.5,70 
					"/>
		<polygon id="XMLID_39_" display="inline" fill="#F05B88" points="74.5,77 74.5,74 79.5,74 79.5,79 82.5,79 82.5,78 85.5,78 
			85.5,81 82.5,81 82.5,82 79.5,82 79.5,84 74.5,84 74.5,82 71.5,82 71.5,77 		"/>
	</g>
	<g id="we5" display="none">
		<rect id="XMLID_5_" x="74.5" y="69" display="inline" fill="#FCD00C" width="5" height="1"/>
		<path id="XMLID_35_" display="inline" fill="#8ED7F7" d="M71.5,90v4h3v-2h2v5H78h2h2.5v-1h-3v-4H83h2h0.5v-5h-3v-1h-3v-2h-5v4h2v2
			H75h-1H71.5z M79.5,90v-1h3v1H79.5z"/>
		<polygon id="XMLID_2_" display="inline" fill="#FCD00C" points="78,70 79.5,70 79.5,73 77.5,73 77.5,74 74.5,74 74.5,73 74.5,70 
					"/>
		<polygon id="XMLID_6_" display="inline" fill="#F05B88" points="79.5,74 79.5,81 82.5,81 82.5,84 80,84 74.5,84 74.5,81 74.5,74 
					"/>
	</g>
</g>
<polygon fill="#F05B88" points="140.5,66 159,66 160,66 161.5,66 161.5,83 158.5,83 158.5,77 140.5,77 "/>
<polygon fill="#FFFFFF" points="119.5,85 127.5,79.11 119.5,73 119.5,76.056 122.545,78 100.5,78 100.5,80 122.791,80 119.5,82.055 
	"/>
<g>
	<path fill="#FFFFFF" d="M143.5,69.5V68h3.5h2.5v0.5V69H148h-2.5v0.5V70h2.5h1.5v0.5V71h1l0,0v1.5V74l0,0h-1v0.5V75h-2h-3v-0.5V74
		l0,0h-1v-0.5V73h1.5h0.5v0.5V74h2h1v-1.5V71h-2h-3V69.5z"/>
	<path fill="#FFFFFF" d="M151.5,69.5V68h3.5h2.5v0.5V69H156h-2.5v0.5V70h2.5h1.5v0.5V71h1l0,0v1.5V74l0,0h-1v0.5V75h-2h-3v-0.5V74
		l0,0h-1v-0.5V73h1.5h0.5v0.5V74h2h1v-1.5V71h-2h-3V69.5z"/>
</g>
<g>
	<path fill="#8ED7F7" d="M185.5,76.5V76h1l0,0v0.5V77h1.5h0.5v0.5V78H188h-1.5v0.5V79h1.5h0.5v0.5V80h1l0,0v0.5V81l0,0h-1v0.5V82
		H188h-1.5v0.5V83l0,0h-1v-0.5V82h-1h-2v-0.5V81h2h1v-0.5V80H185h-1.5v-0.5V79l0,0h-1v-0.5V78h1l0,0v-0.5V77h1.5h0.5V76.5z
		 M186,78.5V78h-0.5H185v0.5V79h0.5h0.5V78.5z M188,80.5V80h-0.5H187v0.5V81h0.5h0.5V80.5z"/>
</g>
<g>
	<path fill="#8ED7F7" d="M205.5,76.5V76h1l0,0v0.5V77h1.5h0.5v0.5V78H208h-1.5v0.5V79h1.5h0.5v0.5V80h1l0,0v0.5V81l0,0h-1v0.5V82
		H208h-1.5v0.5V83l0,0h-1v-0.5V82h-1h-2v-0.5V81h2h1v-0.5V80H205h-1.5v-0.5V79l0,0h-1v-0.5V78h1l0,0v-0.5V77h1.5h0.5V76.5z
		 M206,78.5V78h-0.5H205v0.5V79h0.5h0.5V78.5z M208,80.5V80h-0.5H207v0.5V81h0.5h0.5V80.5z"/>
</g>
<g>
	<path fill="#8ED7F7" d="M225.5,76.5V76h1l0,0v0.5V77h1.5h0.5v0.5V78H228h-1.5v0.5V79h1.5h0.5v0.5V80h1l0,0v0.5V81l0,0h-1v0.5V82
		H228h-1.5v0.5V83l0,0h-1v-0.5V82h-1h-2v-0.5V81h2h1v-0.5V80H225h-1.5v-0.5V79l0,0h-1v-0.5V78h1l0,0v-0.5V77h1.5h0.5V76.5z
		 M226,78.5V78h-0.5H225v0.5V79h0.5h0.5V78.5z M228,80.5V80h-0.5H227v0.5V81h0.5h0.5V80.5z"/>
</g>
<g>
	<path fill="#8ED7F7" d="M245.5,76.5V76h1l0,0v0.5V77h1.5h0.5v0.5V78H248h-1.5v0.5V79h1.5h0.5v0.5V80h1l0,0v0.5V81l0,0h-1v0.5V82
		H248h-1.5v0.5V83l0,0h-1v-0.5V82h-1h-2v-0.5V81h2h1v-0.5V80H245h-1.5v-0.5V79l0,0h-1v-0.5V78h1l0,0v-0.5V77h1.5h0.5V76.5z
		 M246,78.5V78h-0.5H245v0.5V79h0.5h0.5V78.5z M248,80.5V80h-0.5H247v0.5V81h0.5h0.5V80.5z"/>
</g>
<g>
	<path fill="#8ED7F7" d="M0.5-16v-14h12h12v2v2h2h2v6v6h-2h-2v2v2h-8h-8v4v4h-4h-4V-16z M20.5-20v-6h-6h-6v6v6h6h6V-20z"/>
	<path fill="#8ED7F7" d="M32.5-16v-14h14h14v2v2h-10h-10v4v4h8h8v2v2h-8h-8v4v4h10h10v2v2h-14h-14V-16z"/>
	<path fill="#8ED7F7" d="M72.5-28v-2h8h8v2v2h2h2v2v2h-4h-4v-2v-2h-4h-4v2v2h-2h-2v6v6h2h2v2v2h4h4v-2v-2h4h4v2v2h-2h-2v2v2h-8h-8
		v-2v-2h-2h-2v-2v-2h-2h-2v-6v-6h2h2v-2v-2h2h2V-28z"/>
	<path fill="#8ED7F7" d="M100.5-16v-2h12h12v2v2h-12h-12V-16z"/>
	<path fill="#8ED7F7" d="M128.5-24v-6h12h12v2v2h-8h-8v2v2h8h8v2v2h2h2v6v6h-2h-2v2v2h-10h-10v-2v-2h-2h-2v-2v-2h4h4v2v2h6h6v-6v-6
		h-10h-10V-24z"/>
	<path fill="#8ED7F7" d="M160.5-24v-6h12h12v2v2h-8h-8v2v2h8h8v2v2h2h2v6v6h-2h-2v2v2h-10h-10v-2v-2h-2h-2v-2v-2h4h4v2v2h6h6v-6v-6
		h-10h-10V-24z"/>
	<path fill="#8ED7F7" d="M196.5-16v-2h12h12v2v2h-12h-12V-16z"/>
	<path fill="#8ED7F7" d="M224.5-16v-14h4h4v2v2h2h2v2v2h2h2v-2v-2h2h2v-2v-2h4h4v14v14h-4h-4v-6v-6h-2h-2v2v2h-2h-2v-2v-2h-2h-2v6v6
		h-4h-4V-16z"/>
	<path fill="#8ED7F7" d="M264.5-28v-2h6h6v2v2h2h2v2v2h2h2v10v10h-4h-4v-4v-4h-6h-6v4v4h-4h-4v-10v-10h2h2v-2v-2h2h2V-28z M272.5-24
		v-2h-2h-2v2v2h-2h-2v4v4h6h6v-4v-4h-2h-2V-24z"/>
	<path fill="#8ED7F7" d="M288.5-16v-14h4h4v2v2h2h2v2v2h2h2v2v2h2h2v-6v-6h4h4v14v14h-4h-4v-2v-2h-2h-2v-2v-2h-2h-2v-2v-2h-2h-2v6v6
		h-4h-4V-16z"/>
</g>
<rect x="0.5" y="7" fill="#8ED7F7" width="316" height="4"/>
</svg>
