<?xml version="1.0" encoding="utf-8"?>
<!-- Generator: Adobe Illustrator 16.0.0, SVG Export Plug-In . SVG Version: 6.00 Build 0)  -->
<!DOCTYPE svg PUBLIC "-//W3C//DTD SVG 1.1//EN" "http://www.w3.org/Graphics/SVG/1.1/DTD/svg11.dtd">
<svg version="1.1" id="Layer_1" xmlns="http://www.w3.org/2000/svg" xmlns:xlink="http://www.w3.org/1999/xlink" x="0px" y="0px"
	 width="316px" height="226px" viewBox="0.5 -12 316 226" enable-background="new 0.5 -12 316 226" xml:space="preserve">
<g id="protester-we">
	<g id="we1" display="none">
		<rect id="XMLID_59_" x="45.5" y="11" display="inline" fill="#FCD00C" width="5" height="1"/>
		<path id="XMLID_54_" display="inline" fill="#8ED7F7" d="M50.5,35v-3h3v3H50.5z M42.5,31v7h3v-5h3v-3h2v1h3v1h3v-4h-3v-1h-3v-1h-5
			v5H42.5z M56.5,35h-3v1h3V35z M48.5,38h-3v1h3V38z"/>
		<polygon id="XMLID_53_" display="inline" fill="#FCD00C" points="49,12 50.5,12 50.5,15 48.5,15 48.5,16 45.5,16 45.5,15 45.5,12 
					"/>
		<polygon id="XMLID_52_" display="inline" fill="#F05B88" points="50.5,16 50.5,21 53.5,21 53.5,24 50.5,24 50.5,26 45.5,26 
			45.5,24 45.5,21 45.5,16 		"/>
	</g>
	<g id="we2" display="none">
		<rect id="XMLID_51_" x="45.5" y="11" display="inline" fill="#FCD00C" width="5" height="1"/>
		<polygon id="XMLID_50_" display="inline" fill="#8ED7F7" points="40.5,34 40.5,31 42.5,31 42.5,28 45.5,28 45.5,26 50.5,26 
			50.5,27 53.5,27 53.5,28 56.5,28 56.5,32 56.5,34 59.5,34 59.5,35 57,35 53.5,35 53.5,32 53.5,31 50.5,31 50.5,30 45.5,30 
			45.5,34 42.5,34 42.5,35 40.5,35 40.5,38 37.5,38 37.5,34 		"/>
		<polygon id="XMLID_49_" display="inline" fill="#FCD00C" points="49,12 50.5,12 50.5,15 48.5,15 48.5,16 45.5,16 45.5,15 45.5,12 
					"/>
		<polygon id="XMLID_48_" display="inline" fill="#F05B88" points="45.5,19 45.5,16 50.5,16 50.5,21 53.5,21 53.5,20 55.5,20 
			55.5,23 53.5,23 53.5,24 50.5,24 50.5,26 45.5,26 45.5,24 42.5,24 42.5,19 		"/>
	</g>
	<g id="we3">
		<polygon id="XMLID_13_" fill="#8ED7F7" points="42.5,28 42.5,29 42.5,30 45.5,30 45.5,26 51,26 53.5,26 53.5,27 56.5,27 56.5,31 
			58.5,31 58.5,32 57,32 56,32 53.5,32 53.5,29 50.5,29 50.5,30 48.5,30 48.5,33 42.5,33 42.5,31 39.5,31 39.5,29 37.5,29 37.5,28 
					"/>
		<polygon fill="#FCD00C" points="45.5,11 45.5,12 45.5,15 45.5,16 48.5,16 48.5,15 50.5,15 50.5,12 50.5,11 		"/>
		<polygon id="XMLID_11_" fill="#F05B88" points="42.5,20 42.5,19 45.5,19 45.5,16 50.5,16 50.5,19 53.5,19 53.5,18 56.5,18 
			56.5,20 53.5,20 53.5,22 50.5,22 50.5,26 45.5,26 45.5,22 42.5,22 42.5,24 39.5,24 39.5,20 		"/>
	</g>
	<g id="we4" display="none">
		<rect id="XMLID_43_" x="45.5" y="11" display="inline" fill="#FCD00C" width="5" height="1"/>
		<polygon id="XMLID_42_" display="inline" fill="#8ED7F7" points="43,32 45.5,32 45.5,31 45.5,30 45.5,26 50.5,26 50.5,28 53.5,28 
			53.5,35 50.5,35 50.5,31 48.5,31 48.5,32 48.5,33 48.5,34 42.5,34 42.5,36 39.5,36 39.5,32 		"/>
		<polygon id="XMLID_41_" display="inline" fill="#8ED7F7" points="58.5,36 56.5,36 56.5,37 53.5,37 53.5,36 53.5,35 58.5,35 		"/>
		<polygon id="XMLID_40_" display="inline" fill="#FCD00C" points="49,12 50.5,12 50.5,15 48.5,15 48.5,16 45.5,16 45.5,15 45.5,12 
					"/>
		<polygon id="XMLID_39_" display="inline" fill="#F05B88" points="45.5,19 45.5,16 50.5,16 50.5,21 53.5,21 53.5,20 56.5,20 
			56.5,23 53.5,23 53.5,24 50.5,24 50.5,26 45.5,26 45.5,24 42.5,24 42.5,19 		"/>
	</g>
	<g id="we5" display="none">
		<rect id="XMLID_5_" x="45.5" y="11" display="inline" fill="#FCD00C" width="5" height="1"/>
		<path id="XMLID_35_" display="inline" fill="#8ED7F7" d="M42.5,32v4h3v-2h2v5H49h2h2.5v-1h-3v-4H54h2h0.5v-5h-3v-1h-3v-2h-5v4h2v2
			H46h-1H42.5z M50.5,32v-1h3v1H50.5z"/>
		<polygon id="XMLID_2_" display="inline" fill="#FCD00C" points="49,12 50.5,12 50.5,15 48.5,15 48.5,16 45.5,16 45.5,15 45.5,12 
					"/>
		<polygon id="XMLID_6_" display="inline" fill="#F05B88" points="50.5,16 50.5,23 53.5,23 53.5,26 51,26 45.5,26 45.5,23 45.5,16 
					"/>
	</g>
</g>
<polygon fill="#F05B88" points="249.701,11.841 267.719,16.035 268.693,16.262 270.154,16.602 267.66,27.315 247.207,22.555 "/>
<g>
	<path fill="#FFFFFF" d="M251.829,15.93l0.34-1.461l3.409,0.794l2.435,0.566l-0.113,0.487l-0.113,0.486l-1.461-0.34l-2.435-0.566
		l-0.113,0.486l-0.113,0.487l2.435,0.567l1.461,0.34l-0.114,0.486l-0.113,0.487l0.975,0.227l0,0l-0.34,1.461l-0.34,1.461l0,0
		l-0.975-0.227l-0.113,0.487l-0.113,0.486l-1.948-0.453l-2.922-0.68l0.114-0.487l0.113-0.487l0,0l-0.975-0.227l0.113-0.487
		l0.113-0.486l1.461,0.34l0.487,0.113l-0.113,0.487l-0.113,0.486l1.948,0.454l0.974,0.227l0.34-1.461l0.341-1.461l-1.949-0.453
		l-2.922-0.681L251.829,15.93z"/>
	<path fill="#FFFFFF" d="M259.621,17.744l0.34-1.461l3.408,0.793l2.436,0.566l-0.113,0.487l-0.113,0.487l-1.461-0.34l-2.436-0.567
		l-0.113,0.487l-0.113,0.486l2.436,0.567l1.461,0.34l-0.113,0.487l-0.113,0.486l0.973,0.228l0,0l-0.34,1.461l-0.34,1.461l0,0
		l-0.974-0.228l-0.114,0.487l-0.113,0.487l-1.947-0.453l-2.922-0.681l0.113-0.487l0.113-0.486l0,0l-0.974-0.227l0.113-0.487
		l0.113-0.487l1.461,0.34l0.487,0.113l-0.113,0.487l-0.113,0.487l1.947,0.453l0.975,0.227l0.34-1.461l0.34-1.461l-1.947-0.453
		l-2.922-0.68L259.621,17.744z"/>
</g>
<path fill="#FCD00C" d="M268.5,22"/>
<path fill="#FCD00C" d="M286.521,13c5.072,0,9.502,2.707,11.957,6.747L282.521,27l15.957,7.253
	c-2.455,4.04-6.885,6.747-11.957,6.747c-7.73,0-14-6.268-14-14S278.789,13,286.521,13z"/>
<polygon points="288.229,17.207 286.814,15.793 285.271,17.336 283.729,15.793 282.314,17.207 283.857,18.75 282.314,20.293 
	283.729,21.707 285.271,20.164 286.814,21.707 288.229,20.293 286.686,18.75 "/>
<rect x="264.019" y="26.897" transform="matrix(0.974 0.2266 -0.2266 0.974 13.6788 -59.3813)" fill="#F05B88" width="3" height="6"/>
<rect x="65.5" y="2.783" transform="matrix(0.5298 0.8481 -0.8481 0.5298 37.6307 -52.8744)" fill="#FFFFFF" width="2" height="9.434"/>
<rect x="56" y="-5.025" transform="matrix(0.973 0.2309 -0.2309 0.973 1.5405 -13.1622)" fill="#FFFFFF" width="2" height="10.05"/>
<g>
	<path fill="#FCD00C" d="M46.5,70v-4h2h2v3v3h1h1v1v1h1h1v-1v-1h1h1v-3v-3h2h2v4v4h-1h-1v1v1h-1h-1v1v1h-1h-1v1v1h-1h-1v-1v-1h-1h-1
		v-1v-1h-1h-1v-1v-1h-1h-1V70z"/>
	<path fill="#FCD00C" d="M64.5,67v-1h5h5v1v1h1h1v5v5h-1h-1v1v1h-5h-5v-1v-1h-1h-1v-5v-5h1h1V67z M72.5,73v-5h-3h-3v5v5h3h3V73z"/>
	<path fill="#FCD00C" d="M82.5,67v-1h4h4v1v1h1h1v1v1h-2h-2v-1v-1h-2h-2v1v1h-1h-1v3v3h1h1v1v1h2h2v-1v-1h2h2v1v1h-1h-1v1v1h-4h-4
		v-1v-1h-1h-1v-1v-1h-1h-1v-3v-3h1h1v-1v-1h1h1V67z"/>
	<path fill="#FCD00C" d="M98.5,67v-1h3h3v1v1h1h1v1v1h1h1v1v1h-5h-5v1v1h4h4v1v1h-4h-4v1v1h5h5v1v1h-7h-7v-5v-5h1h1v-1v-1h1h1V67z
		 M102.5,69v-1h-1h-1v1v1h1h1V69z"/>
	<path fill="#FCD00C" d="M130.5,67v-1h4h4v1v1h1h1v1v1h-2h-2v-1v-1h-2h-2v1v1h-1h-1v3v3h1h1v1v1h2h2v-1v-1h2h2v1v1h-1h-1v1v1h-4h-4
		v-1v-1h-1h-1v-1v-1h-1h-1v-3v-3h1h1v-1v-1h1h1V67z"/>
	<path fill="#FCD00C" d="M144.5,67v-1h5h5v1v1h1h1v5v5h-1h-1v1v1h-5h-5v-1v-1h-1h-1v-5v-5h1h1V67z M152.5,73v-5h-3h-3v5v5h3h3V73z"
		/>
	<path fill="#FCD00C" d="M158.5,73v-7h2h2v1v1h1h1v1v1h1h1v1v1h1h1v-3v-3h2h2v7v7h-2h-2v-1v-1h-1h-1v-1v-1h-1h-1v-1v-1h-1h-1v3v3h-2
		h-2V73z"/>
	<path fill="#FCD00C" d="M176.5,67v-1h4h4v1v1h1h1v1v1h-2h-2v-1v-1h-2h-2v2v2h4h4v1v1h1h1v2v2h-1h-1v1v1h-5h-5v-1v-1h-1h-1v-1v-1h2
		h2v1v1h3h3v-2v-2h-4h-4v-1v-1h-1h-1v-2v-2h1h1V67z"/>
	<path fill="#FCD00C" d="M190.5,73v-7h7h7v1v1h-5h-5v2v2h4h4v1v1h-4h-4v2v2h5h5v1v1h-7h-7V73z"/>
	<path fill="#FCD00C" d="M210.5,67v-1h5h5v1v1h-4h-4v1v1h-1h-1v3v3h1h1v1v1h2h2v-2v-2h-1h-1v-1v-1h3h3v4v4h-5h-5v-1v-1h-1h-1v-1v-1
		h-1h-1v-3v-3h1h1v-1v-1h1h1V67z"/>
	<path fill="#FCD00C" d="M222.5,72v-6h2h2v6v6h3h3v-6v-6h2h2v6v6h-1h-1v1v1h-5h-5v-1v-1h-1h-1V72z"/>
	<path fill="#FCD00C" d="M240.5,67v-1h6h6v1v1h-2h-2v5v5h2h2v1v1h-6h-6v-1v-1h2h2v-5v-5h-2h-2V67z"/>
	<path fill="#FCD00C" d="M254.5,72v-6h2h2v6v6h3h3v-6v-6h2h2v6v6h-1h-1v1v1h-5h-5v-1v-1h-1h-1V72z"/>
	<path fill="#FCD00C" d="M38.5,105v-7h6h6v1v1h1h1v3v3h-1h-1v1v1h-4h-4v2v2h-2h-2V105z M48.5,103v-3h-3h-3v3v3h3h3V103z"/>
	<path fill="#FCD00C" d="M58.5,99v-1h3h3v1v1h1h1v1v1h1h1v5v5h-2h-2v-2v-2h-3h-3v2v2h-2h-2v-5v-5h1h1v-1v-1h1h1V99z M62.5,101v-1h-1
		h-1v1v1h-1h-1v2v2h3h3v-2v-2h-1h-1V101z"/>
	<path fill="#FCD00C" d="M70.5,105v-7h6h6v1v1h1h1v3v3h-2h-2v1v1h1h1v1v1h1h1v1v1h-3h-3v-1v-1h-1h-1v-1v-1h-1h-1v2v2h-2h-2V105z
		 M80.5,102v-2h-3h-3v3v3h2h2v-1v-1h1h1V102z"/>
	<path fill="#FCD00C" d="M90.5,99v-1h3h3v1v1h1h1v1v1h1h1v5v5h-2h-2v-2v-2h-3h-3v2v2h-2h-2v-5v-5h1h1v-1v-1h1h1V99z M94.5,101v-1h-1
		h-1v1v1h-1h-1v2v2h3h3v-2v-2h-1h-1V101z"/>
	<path fill="#FCD00C" d="M102.5,105v-7h6h6v1v1h1h1v3v3h-2h-2v1v1h1h1v1v1h1h1v1v1h-3h-3v-1v-1h-1h-1v-1v-1h-1h-1v2v2h-2h-2V105z
		 M112.5,102v-2h-3h-3v3v3h2h2v-1v-1h1h1V102z"/>
	<path fill="#FCD00C" d="M138.5,99v-1h3h3v1v1h1h1v1v1h1h1v5v5h-2h-2v-2v-2h-3h-3v2v2h-2h-2v-5v-5h1h1v-1v-1h1h1V99z M142.5,101v-1
		h-1h-1v1v1h-1h-1v2v2h3h3v-2v-2h-1h-1V101z"/>
	<path fill="#FCD00C" d="M166.5,105v-7h6h6v1v1h1h1v3v3h-1h-1v1v1h-4h-4v2v2h-2h-2V105z M176.5,103v-3h-3h-3v3v3h3h3V103z"/>
	<path fill="#FCD00C" d="M182.5,105v-7h7h7v1v1h-5h-5v2v2h4h4v1v1h-4h-4v2v2h5h5v1v1h-7h-7V105z"/>
	<path fill="#FCD00C" d="M202.5,99v-1h4h4v1v1h1h1v1v1h-2h-2v-1v-1h-2h-2v1v1h-1h-1v3v3h1h1v1v1h2h2v-1v-1h2h2v1v1h-1h-1v1v1h-4h-4
		v-1v-1h-1h-1v-1v-1h-1h-1v-3v-3h1h1v-1v-1h1h1V99z"/>
	<path fill="#FCD00C" d="M230.5,101v-3h6h6v1v1h-4h-4v1v1h4h4v1v1h1h1v3v3h-1h-1v1v1h-5h-5v-1v-1h-1h-1v-1v-1h2h2v1v1h3h3v-3v-3h-5
		h-5V101z"/>
	<path fill="#FCD00C" d="M246.5,101v-3h6h6v1v1h-4h-4v1v1h4h4v1v1h1h1v3v3h-1h-1v1v1h-5h-5v-1v-1h-1h-1v-1v-1h2h2v1v1h3h3v-3v-3h-5
		h-5V101z"/>
	<path fill="#FCD00C" d="M266.5,103v-5h3h3v3v3h-1h-1v2v2h-2h-2V103z M266.5,111v-1h2h2v1v1h-2h-2V111z"/>
</g>
<g>
	<path fill="#FFFFFF" d="M89.5,24v-7h6h6v1v1h1h1v3v3h-1h-1v1v1h-4h-4v2v2h-2h-2V24z M99.5,22v-3h-3h-3v3v3h3h3V22z"/>
	<path fill="#FFFFFF" d="M109.5,18v-1h3h3v1v1h1h1v1v1h1h1v5v5h-2h-2v-2v-2h-3h-3v2v2h-2h-2v-5v-5h1h1v-1v-1h1h1V18z M113.5,20v-1
		h-1h-1v1v1h-1h-1v2v2h3h3v-2v-2h-1h-1V20z"/>
	<path fill="#FFFFFF" d="M121.5,24v-7h6h6v1v1h1h1v3v3h-2h-2v1v1h1h1v1v1h1h1v1v1h-3h-3v-1v-1h-1h-1v-1v-1h-1h-1v2v2h-2h-2V24z
		 M131.5,21v-2h-3h-3v3v3h2h2v-1v-1h1h1V21z"/>
	<path fill="#FFFFFF" d="M141.5,18v-1h3h3v1v1h1h1v1v1h1h1v5v5h-2h-2v-2v-2h-3h-3v2v2h-2h-2v-5v-5h1h1v-1v-1h1h1V18z M145.5,20v-1
		h-1h-1v1v1h-1h-1v2v2h3h3v-2v-2h-1h-1V20z"/>
	<path fill="#FFFFFF" d="M153.5,24v-7h6h6v1v1h1h1v2v2h-1h-1v1v1h1h1v2v2h-1h-1v1v1h-6h-6V24z M163.5,21v-2h-3h-3v2v2h3h3V21z
		 M163.5,27v-2h-3h-3v2v2h3h3V27z"/>
	<path fill="#FFFFFF" d="M177.5,18v-1h1h1v1v1h-1h-1v1v1h3h3v1v1h-5h-5v1v1h4h4v1v1h-4h-4v1v1h5h5v1v1h-7h-7v-5v-5h3h3v-1v-1h1h1V18
		z"/>
	<path fill="#FFFFFF" d="M185.5,24v-7h2h2v1v1h1h1v1v1h1h1v1v1h1h1v-3v-3h2h2v7v7h-2h-2v-1v-1h-1h-1v-1v-1h-1h-1v-1v-1h-1h-1v3v3h-2
		h-2V24z"/>
	<path fill="#FFFFFF" d="M203.5,18v-1h4h4v1v1h1h1v1v1h-2h-2v-1v-1h-2h-2v2v2h4h4v1v1h1h1v2v2h-1h-1v1v1h-5h-5v-1v-1h-1h-1v-1v-1h2
		h2v1v1h3h3v-2v-2h-4h-4v-1v-1h-1h-1v-2v-2h1h1V18z"/>
	<path fill="#FFFFFF" d="M221.5,22v-5h3h3v3v3h-1h-1v2v2h-2h-2V22z M221.5,30v-1h2h2v1v1h-2h-2V30z"/>
</g>
<g>
	<path fill="#FFFFFF" d="M54.5,150.5V147H58h3.5v0.5v0.5H59h-2.5v1v1h2h2v0.5v0.5h-2h-2v1.5v1.5h-1h-1V150.5z"/>
	<path fill="#FFFFFF" d="M64.5,147.5V147H66h1.5v0.5v0.5H68h0.5v0.5v0.5H69h0.5v2.5v2.5h-1h-1v-1v-1H66h-1.5v1v1h-1h-1v-2.5V149H63
		h0.5v-0.5V148H64h0.5V147.5z M66.5,148.5V148H66h-0.5v0.5v0.5H65h-0.5v1v1H66h1.5v-1v-1H67h-0.5V148.5z"/>
	<path fill="#FFFFFF" d="M72.5,147.5V147h2h2v0.5v0.5H77h0.5v0.5v0.5h-1h-1v-0.5V148h-1h-1v0.5v0.5H73h-0.5v1v1H73h0.5v0.5v0.5h1h1
		v-0.5V151h1h1v0.5v0.5H77h-0.5v0.5v0.5H76h-0.5v0.5v0.5H75h-0.5v0.5v0.5h-1h-1v-0.5V154h1h1v-0.5V153h-1h-1v-0.5V152H72h-0.5v-0.5
		V151H71h-0.5v-1v-1H71h0.5v-0.5V148H72h0.5V147.5z"/>
	<path fill="#FFFFFF" d="M80.5,147.5V147H82h1.5v0.5v0.5H84h0.5v0.5v0.5H85h0.5v2.5v2.5h-1h-1v-1v-1H82h-1.5v1v1h-1h-1v-2.5V149H79
		h0.5v-0.5V148H80h0.5V147.5z M82.5,148.5V148H82h-0.5v0.5v0.5H81h-0.5v1v1H82h1.5v-1v-1H83h-0.5V148.5z"/>
	<path fill="#FFFFFF" d="M95.5,147.5V147H98h2.5v0.5v0.5h0.5h0.5v2.5v2.5H101h-0.5v0.5v0.5H98h-2.5v-0.5V153H95h-0.5v-2.5V148H95
		h0.5V147.5z M99.5,150.5V148H98h-1.5v2.5v2.5H98h1.5V150.5z"/>
	<path fill="#FFFFFF" d="M110.5,150.5V147h1h1v0.5v0.5h0.5h0.5v0.5v0.5h0.5h0.5v-0.5V148h0.5h0.5v-0.5V147h1h1v3.5v3.5h-1h-1v-1.5
		V151H115h-0.5v0.5v0.5H114h-0.5v-0.5V151H113h-0.5v1.5v1.5h-1h-1V150.5z"/>
	<path fill="#FFFFFF" d="M118.5,150.5V147h3.5h3.5v0.5v0.5H123h-2.5v1v1h2h2v0.5v0.5h-2h-2v1v1h2.5h2.5v0.5v0.5H122h-3.5V150.5z"/>
	<path fill="#FFFFFF" d="M127.5,147.5V147h2h2v0.5v0.5h0.5h0.5v0.5v0.5h-1h-1v-0.5V148h-1h-1v1v1h2h2v0.5v0.5h0.5h0.5v1v1H133h-0.5
		v0.5v0.5H130h-2.5v-0.5V153H127h-0.5v-0.5V152h1h1v0.5v0.5h1.5h1.5v-1v-1h-2h-2v-0.5V150H127h-0.5v-1v-1h0.5h0.5V147.5z"/>
	<path fill="#FFFFFF" d="M134.5,150.5V147h1h1v0.5v0.5h0.5h0.5v0.5v0.5h0.5h0.5v-0.5V148h0.5h0.5v-0.5V147h1h1v3.5v3.5h-1h-1v-1.5
		V151H139h-0.5v0.5v0.5H138h-0.5v-0.5V151H137h-0.5v1.5v1.5h-1h-1V150.5z"/>
	<path fill="#FFFFFF" d="M143.5,147.5V147h2.5h2.5v0.5v0.5h0.5h0.5v2.5v2.5H149h-0.5v0.5v0.5H146h-2.5v-0.5V153H143h-0.5v-2.5V148
		h0.5h0.5V147.5z M147.5,150.5V148H146h-1.5v2.5v2.5h1.5h1.5V150.5z"/>
	<path fill="#FFFFFF" d="M158.5,150.5V147h1h1v0.5v0.5h0.5h0.5v0.5v0.5h0.5h0.5v0.5v0.5h0.5h0.5v-1.5V147h1h1v3.5v3.5h-1h-1v-0.5
		V153H163h-0.5v-0.5V152H162h-0.5v-0.5V151H161h-0.5v1.5v1.5h-1h-1V150.5z"/>
	<path fill="#FFFFFF" d="M168.5,147.5V147h1.5h1.5v0.5v0.5h0.5h0.5v0.5v0.5h0.5h0.5v2.5v2.5h-1h-1v-1v-1H170h-1.5v1v1h-1h-1v-2.5
		V149h0.5h0.5v-0.5V148h0.5h0.5V147.5z M170.5,148.5V148H170h-0.5v0.5v0.5H169h-0.5v1v1h1.5h1.5v-1v-1H171h-0.5V148.5z"/>
	<path fill="#FFFFFF" d="M182.5,149v-2h1h1v1.5v1.5h0.5h0.5v0.5v0.5h0.5h0.5v-0.5V150h0.5h0.5v-1.5V147h1h1v2v2H189h-0.5v0.5v0.5
		H188h-0.5v0.5v0.5H187h-0.5v0.5v0.5H186h-0.5v-0.5V153H185h-0.5v-0.5V152H184h-0.5v-0.5V151H183h-0.5V149z"/>
	<path fill="#FFFFFF" d="M191.5,147.5V147h3h3v0.5v0.5h-1h-1v2.5v2.5h1h1v0.5v0.5h-3h-3v-0.5V153h1h1v-2.5V148h-1h-1V147.5z"/>
	<path fill="#FFFFFF" d="M198.5,150.5V147h2.5h2.5v0.5v0.5h0.5h0.5v0.5v0.5h0.5h0.5v1.5v1.5H205h-0.5v0.5v0.5H204h-0.5v0.5v0.5H201
		h-2.5V150.5z M202.5,148.5V148h-1h-1v2.5v2.5h1h1v-0.5V152h0.5h0.5v-1.5V149H203h-0.5V148.5z"/>
	<path fill="#FFFFFF" d="M208.5,147.5V147h1.5h1.5v0.5v0.5h0.5h0.5v0.5v0.5h0.5h0.5v2.5v2.5h-1h-1v-1v-1H210h-1.5v1v1h-1h-1v-2.5
		V149h0.5h0.5v-0.5V148h0.5h0.5V147.5z M210.5,148.5V148H210h-0.5v0.5v0.5H209h-0.5v1v1h1.5h1.5v-1v-1H211h-0.5V148.5z"/>
	<path fill="#FFFFFF" d="M222.5,150.5V147h3h3v0.5v0.5h0.5h0.5v1.5v1.5h-1h-1v0.5v0.5h0.5h0.5v0.5v0.5h0.5h0.5v0.5v0.5H228h-1.5
		v-0.5V153H226h-0.5v-0.5V152H225h-0.5v1v1h-1h-1V150.5z M227.5,149v-1H226h-1.5v1.5v1.5h1h1v-0.5V150h0.5h0.5V149z"/>
	<path fill="#FFFFFF" d="M230.5,150.5V147h3.5h3.5v0.5v0.5H235h-2.5v1v1h2h2v0.5v0.5h-2h-2v1v1h2.5h2.5v0.5v0.5H234h-3.5V150.5z"/>
	<path fill="#FFFFFF" d="M240.5,147.5V147h1.5h1.5v0.5v0.5h0.5h0.5v0.5v0.5h0.5h0.5v2.5v2.5h-1h-1v-1v-1H242h-1.5v1v1h-1h-1v-2.5
		V149h0.5h0.5v-0.5V148h0.5h0.5V147.5z M242.5,148.5V148H242h-0.5v0.5v0.5H241h-0.5v1v1h1.5h1.5v-1v-1H243h-0.5V148.5z"/>
	<path fill="#FFFFFF" d="M247.5,150.5V147h1h1v3v3h2h2v0.5v0.5h-3h-3V150.5z"/>
	<path fill="#FFFFFF" d="M256.5,149.5V147h1.5h1.5v1.5v1.5H259h-0.5v1v1h-1h-1V149.5z M256.5,153.5V153h1h1v0.5v0.5h-1h-1V153.5z"/>
	<path fill="#FFFFFF" d="M51.5,163.5V163H54h2.5v0.5v0.5H57h0.5v2.5v2.5H57h-0.5v0.5v0.5H54h-2.5v-0.5V169H51h-0.5v-2.5V164H51h0.5
		V163.5z M55.5,166.5V164H54h-1.5v2.5v2.5H54h1.5V166.5z"/>
	<path fill="#FFFFFF" d="M60.5,163.5V163h2h2v0.5v0.5H65h0.5v0.5v0.5h-1h-1v-0.5V164h-1h-1v0.5v0.5H61h-0.5v1.5v1.5H61h0.5v0.5v0.5
		h1h1v-0.5V168h1h1v0.5v0.5H65h-0.5v0.5v0.5h-2h-2v-0.5V169H60h-0.5v-0.5V168H59h-0.5v-1.5V165H59h0.5v-0.5V164H60h0.5V163.5z"/>
	<path fill="#FFFFFF" d="M66.5,166v-3h1h1v3v3H70h1.5v-3v-3h1h1v3v3H73h-0.5v0.5v0.5H70h-2.5v-0.5V169H67h-0.5V166z"/>
	<path fill="#FFFFFF" d="M74.5,166.5V163h3h3v0.5v0.5H81h0.5v1.5v1.5H81h-0.5v0.5v0.5h-2h-2v1v1h-1h-1V166.5z M79.5,165.5V164H78
		h-1.5v1.5v1.5H78h1.5V165.5z"/>
	<path fill="#FFFFFF" d="M82.5,166.5V163H86h3.5v0.5v0.5H87h-2.5v1v1h2h2v0.5v0.5h-2h-2v1v1H87h2.5v0.5v0.5H86h-3.5V166.5z"/>
	<path fill="#FFFFFF" d="M100.5,163.5V163h1.5h1.5v0.5v0.5h0.5h0.5v0.5v0.5h0.5h0.5v2.5v2.5h-1h-1v-1v-1H102h-1.5v1v1h-1h-1v-2.5
		V165H99h0.5v-0.5V164h0.5h0.5V163.5z M102.5,164.5V164H102h-0.5v0.5v0.5H101h-0.5v1v1h1.5h1.5v-1v-1H103h-0.5V164.5z"/>
	<path fill="#FFFFFF" d="M107.5,163.5V163h2h2v0.5v0.5h0.5h0.5v0.5v0.5h-1h-1v-0.5V164h-1h-1v1v1h2h2v0.5v0.5h0.5h0.5v1v1H113h-0.5
		v0.5v0.5H110h-2.5v-0.5V169H107h-0.5v-0.5V168h1h1v0.5v0.5h1.5h1.5v-1v-1h-2h-2v-0.5V166H107h-0.5v-1v-1h0.5h0.5V163.5z"/>
	<path fill="#FFFFFF" d="M122.5,166.5V163h3h3v0.5v0.5h0.5h0.5v1.5v1.5h-1h-1v0.5v0.5h0.5h0.5v0.5v0.5h0.5h0.5v0.5v0.5H128h-1.5
		v-0.5V169H126h-0.5v-0.5V168H125h-0.5v1v1h-1h-1V166.5z M127.5,165v-1H126h-1.5v1.5v1.5h1h1v-0.5V166h0.5h0.5V165z"/>
	<path fill="#FFFFFF" d="M130.5,166v-3h1h1v3v3h1.5h1.5v-3v-3h1h1v3v3H137h-0.5v0.5v0.5H134h-2.5v-0.5V169H131h-0.5V166z"/>
	<path fill="#FFFFFF" d="M140.5,163.5V163h1.5h1.5v0.5v0.5h0.5h0.5v0.5v0.5h0.5h0.5v2.5v2.5h-1h-1v-1v-1H142h-1.5v1v1h-1h-1v-2.5
		V165h0.5h0.5v-0.5V164h0.5h0.5V163.5z M142.5,164.5V164H142h-0.5v0.5v0.5H141h-0.5v1v1h1.5h1.5v-1v-1H143h-0.5V164.5z"/>
	<path fill="#FFFFFF" d="M147.5,163.5V163h2h2v0.5v0.5h0.5h0.5v0.5v0.5h-1h-1v-0.5V164h-1h-1v1v1h2h2v0.5v0.5h0.5h0.5v1v1H153h-0.5
		v0.5v0.5H150h-2.5v-0.5V169H147h-0.5v-0.5V168h1h1v0.5v0.5h1.5h1.5v-1v-1h-2h-2v-0.5V166H147h-0.5v-1v-1h0.5h0.5V163.5z"/>
	<path fill="#FFFFFF" d="M162.5,166.5V163h2.5h2.5v0.5v0.5h0.5h0.5v0.5v0.5h0.5h0.5v1.5v1.5H169h-0.5v0.5v0.5H168h-0.5v0.5v0.5H165
		h-2.5V166.5z M166.5,164.5V164h-1h-1v2.5v2.5h1h1v-0.5V168h0.5h0.5v-1.5V165H167h-0.5V164.5z"/>
	<path fill="#FFFFFF" d="M172.5,163.5V163h1.5h1.5v0.5v0.5h0.5h0.5v0.5v0.5h0.5h0.5v2.5v2.5h-1h-1v-1v-1H174h-1.5v1v1h-1h-1v-2.5
		V165h0.5h0.5v-0.5V164h0.5h0.5V163.5z M174.5,164.5V164H174h-0.5v0.5v0.5H173h-0.5v1v1h1.5h1.5v-1v-1H175h-0.5V164.5z"/>
	<path fill="#FFFFFF" d="M187.5,163.5V163h2h2v0.5v0.5h0.5h0.5v0.5v0.5h-1h-1v-0.5V164h-1h-1v1v1h2h2v0.5v0.5h0.5h0.5v1v1H193h-0.5
		v0.5v0.5H190h-2.5v-0.5V169H187h-0.5v-0.5V168h1h1v0.5v0.5h1.5h1.5v-1v-1h-2h-2v-0.5V166H187h-0.5v-1v-1h0.5h0.5V163.5z"/>
	<path fill="#FFFFFF" d="M194.5,166v-3h1h1v3v3h1.5h1.5v-3v-3h1h1v3v3H201h-0.5v0.5v0.5H198h-2.5v-0.5V169H195h-0.5V166z"/>
	<path fill="#FFFFFF" d="M204.5,163.5V163h1.5h1.5v0.5v0.5h0.5h0.5v0.5v0.5h0.5h0.5v2.5v2.5h-1h-1v-1v-1H206h-1.5v1v1h-1h-1v-2.5
		V165h0.5h0.5v-0.5V164h0.5h0.5V163.5z M206.5,164.5V164H206h-0.5v0.5v0.5H205h-0.5v1v1h1.5h1.5v-1v-1H207h-0.5V164.5z"/>
	<path fill="#FFFFFF" d="M220.5,163.5V163h2h2v0.5v0.5h0.5h0.5v0.5v0.5h-1h-1v-0.5V164h-1h-1v0.5v0.5H221h-0.5v1.5v1.5h0.5h0.5v0.5
		v0.5h1h1v-0.5V168h1h1v0.5v0.5H225h-0.5v0.5v0.5h-2h-2v-0.5V169H220h-0.5v-0.5V168H219h-0.5v-1.5V165h0.5h0.5v-0.5V164h0.5h0.5
		V163.5z"/>
	<path fill="#FFFFFF" d="M227.5,163.5V163h3h3v0.5v0.5h-1h-1v2.5v2.5h1h1v0.5v0.5h-3h-3v-0.5V169h1h1v-2.5V164h-1h-1V163.5z"/>
	<path fill="#FFFFFF" d="M234.5,166.5V163h2.5h2.5v0.5v0.5h0.5h0.5v0.5v0.5h0.5h0.5v1.5v1.5H241h-0.5v0.5v0.5H240h-0.5v0.5v0.5H237
		h-2.5V166.5z M238.5,164.5V164h-1h-1v2.5v2.5h1h1v-0.5V168h0.5h0.5v-1.5V165H239h-0.5V164.5z"/>
	<path fill="#FFFFFF" d="M244.5,163.5V163h1.5h1.5v0.5v0.5h0.5h0.5v0.5v0.5h0.5h0.5v2.5v2.5h-1h-1v-1v-1H246h-1.5v1v1h-1h-1v-2.5
		V165h0.5h0.5v-0.5V164h0.5h0.5V163.5z M246.5,164.5V164H246h-0.5v0.5v0.5H245h-0.5v1v1h1.5h1.5v-1v-1H247h-0.5V164.5z"/>
	<path fill="#FFFFFF" d="M250.5,166.5V163h2.5h2.5v0.5v0.5h0.5h0.5v0.5v0.5h0.5h0.5v1.5v1.5H257h-0.5v0.5v0.5H256h-0.5v0.5v0.5H253
		h-2.5V166.5z M254.5,164.5V164h-1h-1v2.5v2.5h1h1v-0.5V168h0.5h0.5v-1.5V165H255h-0.5V164.5z"/>
	<path fill="#FFFFFF" d="M258.5,166.5V163h3.5h3.5v0.5v0.5H263h-2.5v1v1h2h2v0.5v0.5h-2h-2v1v1h2.5h2.5v0.5v0.5H262h-3.5V166.5z"/>
	<path fill="#FFFFFF" d="M42.5,182.5V179h1h1v0.5v0.5H45h0.5v0.5v0.5H46h0.5v0.5v0.5H47h0.5v-1.5V179h1h1v3.5v3.5h-1h-1v-0.5V185H47
		h-0.5v-0.5V184H46h-0.5v-0.5V183H45h-0.5v1.5v1.5h-1h-1V182.5z"/>
	<path fill="#FFFFFF" d="M51.5,179.5V179H54h2.5v0.5v0.5H57h0.5v2.5v2.5H57h-0.5v0.5v0.5H54h-2.5v-0.5V185H51h-0.5v-2.5V180H51h0.5
		V179.5z M55.5,182.5V180H54h-1.5v2.5v2.5H54h1.5V182.5z"/>
	<path fill="#FFFFFF" d="M66.5,182.5V179H69h2.5v0.5v0.5H72h0.5v0.5v0.5H73h0.5v1.5v1.5H73h-0.5v0.5v0.5H72h-0.5v0.5v0.5H69h-2.5
		V182.5z M70.5,180.5V180h-1h-1v2.5v2.5h1h1v-0.5V184H71h0.5v-1.5V181H71h-0.5V180.5z"/>
	<path fill="#FFFFFF" d="M75.5,179.5V179h3h3v0.5v0.5h-1h-1v2.5v2.5h1h1v0.5v0.5h-3h-3v-0.5V185h1h1v-2.5V180h-1h-1V179.5z"/>
	<path fill="#FFFFFF" d="M84.5,179.5V179H86h1.5v0.5v0.5H88h0.5v0.5v0.5H89h0.5v2.5v2.5h-1h-1v-1v-1H86h-1.5v1v1h-1h-1v-2.5V181H83
		h0.5v-0.5V180H84h0.5V179.5z M86.5,180.5V180H86h-0.5v0.5v0.5H85h-0.5v1v1H86h1.5v-1v-1H87h-0.5V180.5z"/>
	<path fill="#FFFFFF" d="M101.5,179.5V179h1h1v3v3h1h1v0.5v0.5h-3h-3v-0.5V185h1h1v-2v-2H101h-0.5v-0.5V180h0.5h0.5V179.5z"/>
	<path fill="#FFFFFF" d="M107.5,179.5V179h3h3v0.5v0.5H113h-0.5v0.5v0.5H112h-0.5v0.5v0.5h0.5h0.5v0.5v0.5h0.5h0.5v1v1H113h-0.5v0.5
		v0.5H110h-2.5v-0.5V185H107h-0.5v-0.5V184h1h1v0.5v0.5h1.5h1.5v-1v-1H110h-1.5v-0.5V182h0.5h0.5v-0.5V181h0.5h0.5v-0.5V180H109
		h-1.5V179.5z"/>
	<path fill="#FFFFFF" d="M120.5,179.5V179h0.5h0.5v0.5v0.5H121h-0.5v0.5v0.5H120h-0.5v0.5v0.5H119h-0.5v0.5v0.5H118h-0.5v0.5v0.5
		H117h-0.5v0.5v0.5H116h-0.5v0.5v0.5H115h-0.5v-0.5V185h0.5h0.5v-0.5V184h0.5h0.5v-0.5V183h0.5h0.5v-0.5V182h0.5h0.5v-0.5V181h0.5
		h0.5v-0.5V180h0.5h0.5V179.5z"/>
	<path fill="#FFFFFF" d="M125.5,179.5V179h1h1v3v3h1h1v0.5v0.5h-3h-3v-0.5V185h1h1v-2v-2H125h-0.5v-0.5V180h0.5h0.5V179.5z"/>
	<path fill="#FFFFFF" d="M131.5,179.5V179h2.5h2.5v0.5v0.5h0.5h0.5v1v1H137h-0.5v0.5v0.5H136h-0.5v0.5v0.5h-1h-1v0.5v0.5h2h2v0.5
		v0.5H134h-3.5v-1v-1h0.5h0.5v-0.5V183h0.5h0.5v-0.5V182h1h1v-0.5V181h0.5h0.5v-0.5V180H134h-1.5v0.5v0.5h-1h-1v-0.5V180h0.5h0.5
		V179.5z"/>
	<path fill="#FFFFFF" d="M148.5,179.5V179h2h2v0.5v0.5h0.5h0.5v0.5v0.5h-1h-1v-0.5V180h-1h-1v0.5v0.5H149h-0.5v1.5v1.5h0.5h0.5v0.5
		v0.5h1h1v-0.5V184h1h1v0.5v0.5H153h-0.5v0.5v0.5h-2h-2v-0.5V185H148h-0.5v-0.5V184H147h-0.5v-1.5V181h0.5h0.5v-0.5V180h0.5h0.5
		V179.5z"/>
	<path fill="#FFFFFF" d="M155.5,179.5V179h2.5h2.5v0.5v0.5h0.5h0.5v2.5v2.5H161h-0.5v0.5v0.5H158h-2.5v-0.5V185H155h-0.5v-2.5V180
		h0.5h0.5V179.5z M159.5,182.5V180H158h-1.5v2.5v2.5h1.5h1.5V182.5z"/>
	<path fill="#FFFFFF" d="M162.5,182.5V179h1h1v0.5v0.5h0.5h0.5v0.5v0.5h0.5h0.5v0.5v0.5h0.5h0.5v-1.5V179h1h1v3.5v3.5h-1h-1v-0.5
		V185H167h-0.5v-0.5V184H166h-0.5v-0.5V183H165h-0.5v1.5v1.5h-1h-1V182.5z"/>
	<path fill="#FFFFFF" d="M171.5,179.5V179h3h3v0.5v0.5h-1h-1v3v3h-1h-1v-3v-3h-1h-1V179.5z"/>
	<path fill="#FFFFFF" d="M178.5,182.5V179h3h3v0.5v0.5h0.5h0.5v1.5v1.5h-1h-1v0.5v0.5h0.5h0.5v0.5v0.5h0.5h0.5v0.5v0.5H184h-1.5
		v-0.5V185H182h-0.5v-0.5V184H181h-0.5v1v1h-1h-1V182.5z M183.5,181v-1H182h-1.5v1.5v1.5h1h1v-0.5V182h0.5h0.5V181z"/>
	<path fill="#FFFFFF" d="M188.5,179.5V179h1.5h1.5v0.5v0.5h0.5h0.5v0.5v0.5h0.5h0.5v2.5v2.5h-1h-1v-1v-1H190h-1.5v1v1h-1h-1v-2.5
		V181h0.5h0.5v-0.5V180h0.5h0.5V179.5z M190.5,180.5V180H190h-0.5v0.5v0.5H189h-0.5v1v1h1.5h1.5v-1v-1H191h-0.5V180.5z"/>
	<path fill="#FFFFFF" d="M204.5,179.5V179h1.5h1.5v0.5v0.5h0.5h0.5v0.5v0.5h0.5h0.5v2.5v2.5h-1h-1v-1v-1H206h-1.5v1v1h-1h-1v-2.5
		V181h0.5h0.5v-0.5V180h0.5h0.5V179.5z M206.5,180.5V180H206h-0.5v0.5v0.5H205h-0.5v1v1h1.5h1.5v-1v-1H207h-0.5V180.5z"/>
	<path fill="#FFFFFF" d="M218.5,182.5V179h3h3v0.5v0.5h0.5h0.5v1.5v1.5H225h-0.5v0.5v0.5h-2h-2v1v1h-1h-1V182.5z M223.5,181.5V180
		H222h-1.5v1.5v1.5h1.5h1.5V181.5z"/>
	<path fill="#FFFFFF" d="M226.5,182.5V179h3.5h3.5v0.5v0.5H231h-2.5v1v1h2h2v0.5v0.5h-2h-2v1v1h2.5h2.5v0.5v0.5H230h-3.5V182.5z"/>
	<path fill="#FFFFFF" d="M236.5,179.5V179h2h2v0.5v0.5h0.5h0.5v0.5v0.5h-1h-1v-0.5V180h-1h-1v0.5v0.5H237h-0.5v1.5v1.5h0.5h0.5v0.5
		v0.5h1h1v-0.5V184h1h1v0.5v0.5H241h-0.5v0.5v0.5h-2h-2v-0.5V185H236h-0.5v-0.5V184H235h-0.5v-1.5V181h0.5h0.5v-0.5V180h0.5h0.5
		V179.5z"/>
	<path fill="#FFFFFF" d="M250.5,180.5V179h3h3v0.5v0.5h-2h-2v0.5v0.5h2h2v0.5v0.5h0.5h0.5v1.5v1.5H257h-0.5v0.5v0.5H254h-2.5v-0.5
		V185H251h-0.5v-0.5V184h1h1v0.5v0.5h1.5h1.5v-1.5V182H253h-2.5V180.5z"/>
	<path fill="#FFFFFF" d="M258.5,180.5V179h3h3v0.5v0.5h-2h-2v0.5v0.5h2h2v0.5v0.5h0.5h0.5v1.5v1.5H265h-0.5v0.5v0.5H262h-2.5v-0.5
		V185H259h-0.5v-0.5V184h1h1v0.5v0.5h1.5h1.5v-1.5V182H261h-2.5V180.5z"/>
	<path fill="#FFFFFF" d="M268.5,185v-1h1h1v1v1h-1h-1V185z"/>
</g>
</svg>
